  0
SECTION
  2
HEADER
  9
$ANGBASE
  50
0.0
  9
$ANGDIR
  70
1
  9
$MEASUREMENT
  70
1
  0
ENDSEC
  0
SECTION
  2
TABLES
  0
TABLE
  2
LTYPE
  70
4
  0
LTYPE
  5
40F
  2
CONTINUOUS
  70
0
  3
Solid line
  72
65
  73
0
  40
0.0
  0
LTYPE
  5
410
  2
DASHDOT
 70
0
  3
Dash Dot ____ _ ____ _
 72
65
 73
4
 40
2.0
 49
1.25
 49
-0.25
 49
0.25
 49
-0.25
  0
LTYPE
  5
411
  2
DASHED
 70
0
  3
Dashed __ __ __ __ __
 72
65
 73
2
 40
0.75
 49
0.5
 49
-0.25
  0
LTYPE
  5
43B
  2
DOTTED
 70
0
  3
Dotted .  .  .  .
 72
65
 73
2
 40
0.2
 49
0.0
 49
-0.2
  0
ENDTAB
  0
TABLE
  2
STYLE
  70
4
  0
STYLE
  2
KICAD
  70
0
  40
0
  41
1
  42
1
  50
0
  71
0
  3
isocp.shx
  0
STYLE
  2
KICADB
  70
0
  40
0
  41
1
  42
1
  50
0
  71
0
  3
isocp.shx
  0
STYLE
  2
KICADI
  70
0
  40
0
  41
1
  42
1
  50
15
  71
0
  3
isocp.shx
  0
STYLE
  2
KICADBI
  70
0
  40
0
  41
1
  42
1
  50
15
  71
0
  3
isocp.shx
  0
ENDTAB
  0
TABLE
  2
LAYER
  70
1
  0
LAYER
  2
BLACK
  70
0
  62
7
  6
CONTINUOUS
  0
ENDTAB
  0
ENDSEC
  0
SECTION
  2
ENTITIES
0
LINE
8
BLACK
6
CONTINUOUS
10
85.7249999999999943
20
-28.5249999999999986
11
104.7749999999999915
21
-28.5249999999999986
0
LINE
8
BLACK
6
CONTINUOUS
10
104.7749999999999915
20
-28.5249999999999986
11
104.7941339999999997
21
-28.5288059999999994
0
LINE
8
BLACK
6
CONTINUOUS
10
104.7941339999999997
20
-28.5288059999999994
11
104.8211939999999913
21
-28.5558659999999982
0
LINE
8
BLACK
6
CONTINUOUS
10
104.8211939999999913
20
-28.5558659999999982
11
104.8249999999999886
21
-28.5749999999999993
0
LINE
8
BLACK
6
CONTINUOUS
10
104.8249999999999886
20
-28.5749999999999993
11
104.8249999999999886
21
-33.2875000000000014
0
LINE
8
BLACK
6
CONTINUOUS
10
104.8249999999999886
20
-33.2875000000000014
11
123.8249999999999886
21
-33.2875000000000014
0
LINE
8
BLACK
6
CONTINUOUS
10
123.8249999999999886
20
-33.2875000000000014
11
142.875
21
-33.2875000000000014
0
LINE
8
BLACK
6
CONTINUOUS
10
142.875
20
-33.2875000000000014
11
142.8941339999999798
21
-33.2913059999999987
0
LINE
8
BLACK
6
CONTINUOUS
10
142.8941339999999798
20
-33.2913059999999987
11
142.9211939999999856
21
-33.3183659999999975
0
LINE
8
BLACK
6
CONTINUOUS
10
142.9211939999999856
20
-33.3183659999999975
11
142.9249999999999829
21
-33.3374999999999986
0
LINE
8
BLACK
6
CONTINUOUS
10
142.9249999999999829
20
-33.3374999999999986
11
142.9249999999999829
21
-52.3874999999999957
0
LINE
8
BLACK
6
CONTINUOUS
10
142.9249999999999829
20
-52.3874999999999957
11
142.9249999999999829
21
-71.4375
0
LINE
8
BLACK
6
CONTINUOUS
10
142.9249999999999829
20
-71.4375
11
142.9249999999999829
21
-90.4874999999999972
0
LINE
8
BLACK
6
CONTINUOUS
10
142.9249999999999829
20
-90.4874999999999972
11
142.9249999999999829
21
-108.9660339999999934
0
LINE
8
BLACK
6
CONTINUOUS
10
142.9249999999999829
20
-108.9660339999999934
11
146.1337649999999826
21
-90.768225000000001
0
LINE
8
BLACK
6
CONTINUOUS
10
146.1337649999999826
20
-90.768225000000001
11
146.1408349999999814
21
-90.7500429999999909
0
LINE
8
BLACK
6
CONTINUOUS
10
146.1408349999999814
20
-90.7500429999999909
11
146.1408349999999814
21
-90.7500419999999934
0
LINE
8
BLACK
6
CONTINUOUS
10
146.1408349999999814
20
-90.7500419999999934
11
146.1721829999999898
21
-90.7280919999999895
0
LINE
8
BLACK
6
CONTINUOUS
10
146.1721829999999898
20
-90.7280919999999895
11
146.1916870000000017
21
-90.7276669999999967
0
LINE
8
BLACK
6
CONTINUOUS
10
146.1916870000000017
20
-90.7276669999999967
11
164.952274999999986
21
-94.0356649999999945
0
LINE
8
BLACK
6
CONTINUOUS
10
164.952274999999986
20
-94.0356649999999945
11
164.9704569999999819
21
-94.0427349999999933
0
LINE
8
BLACK
6
CONTINUOUS
10
164.9704569999999819
20
-94.0427349999999933
11
164.9704579999999794
21
-94.0427359999999908
0
LINE
8
BLACK
6
CONTINUOUS
10
164.9704579999999794
20
-94.0427359999999908
11
164.9924079999999833
21
-94.0740839999999992
0
LINE
8
BLACK
6
CONTINUOUS
10
164.9924079999999833
20
-94.0740839999999992
11
164.9928329999999903
21
-94.0935879999999969
0
LINE
8
BLACK
6
CONTINUOUS
10
164.9928329999999903
20
-94.0935879999999969
11
161.6848349999999925
21
-112.8541749999999979
0
LINE
8
BLACK
6
CONTINUOUS
10
161.6848349999999925
20
-112.8541749999999979
11
161.6848320000000001
21
-112.8541799999999995
0
LINE
8
BLACK
6
CONTINUOUS
10
161.6848320000000001
20
-112.8541799999999995
11
161.6848329999999976
21
-112.8541879999999935
0
LINE
8
BLACK
6
CONTINUOUS
10
161.6848329999999976
20
-112.8541879999999935
11
158.3768349999999998
21
-131.6147749999999803
0
LINE
8
BLACK
6
CONTINUOUS
10
158.3768349999999998
20
-131.6147749999999803
11
158.369765000000001
21
-131.6329580000000021
0
LINE
8
BLACK
6
CONTINUOUS
10
158.369765000000001
20
-131.6329580000000021
11
158.3384169999999926
21
-131.654908000000006
0
LINE
8
BLACK
6
CONTINUOUS
10
158.3384169999999926
20
-131.654908000000006
11
158.3384159999999952
21
-131.6549069999999801
0
LINE
8
BLACK
6
CONTINUOUS
10
158.3384159999999952
20
-131.6549069999999801
11
158.3384159999999952
21
-131.654908000000006
0
LINE
8
BLACK
6
CONTINUOUS
10
158.3384159999999952
20
-131.654908000000006
11
158.3189119999999832
21
-131.6553329999999846
0
LINE
8
BLACK
6
CONTINUOUS
10
158.3189119999999832
20
-131.6553329999999846
11
140.0674999999999955
21
-128.4371160000000032
0
LINE
8
BLACK
6
CONTINUOUS
10
140.0674999999999955
20
-128.4371160000000032
11
140.0674999999999955
21
-128.5875000000000057
0
LINE
8
BLACK
6
CONTINUOUS
10
140.0674999999999955
20
-128.5875000000000057
11
140.0636939999999981
21
-128.6066339999999855
0
LINE
8
BLACK
6
CONTINUOUS
10
140.0636939999999981
20
-128.6066339999999855
11
140.0366339999999923
21
-128.6336939999999913
0
LINE
8
BLACK
6
CONTINUOUS
10
140.0366339999999923
20
-128.6336939999999913
11
140.0174999999999841
21
-128.6374999999999886
0
LINE
8
BLACK
6
CONTINUOUS
10
140.0174999999999841
20
-128.6374999999999886
11
120.9675000000000011
21
-128.6374999999999886
0
LINE
8
BLACK
6
CONTINUOUS
10
120.9675000000000011
20
-128.6374999999999886
11
120.9483659999999929
21
-128.6336939999999913
0
LINE
8
BLACK
6
CONTINUOUS
10
120.9483659999999929
20
-128.6336939999999913
11
120.9213060000000013
21
-128.6066339999999855
0
LINE
8
BLACK
6
CONTINUOUS
10
120.9213060000000013
20
-128.6066339999999855
11
120.9174999999999898
21
-128.5875000000000057
0
LINE
8
BLACK
6
CONTINUOUS
10
120.9174999999999898
20
-128.5875000000000057
11
120.9174999999999898
21
-109.5874999999999915
0
LINE
8
BLACK
6
CONTINUOUS
10
120.9174999999999898
20
-109.5874999999999915
11
104.7749999999999915
21
-109.5874999999999915
0
LINE
8
BLACK
6
CONTINUOUS
10
104.7749999999999915
20
-109.5874999999999915
11
104.7558659999999975
21
-109.5836939999999942
0
LINE
8
BLACK
6
CONTINUOUS
10
104.7558659999999975
20
-109.5836939999999942
11
104.7288059999999916
21
-109.5566339999999883
0
LINE
8
BLACK
6
CONTINUOUS
10
104.7288059999999916
20
-109.5566339999999883
11
104.7249999999999943
21
-109.5374999999999943
0
LINE
8
BLACK
6
CONTINUOUS
10
104.7249999999999943
20
-109.5374999999999943
11
104.7249999999999943
21
-90.4874999999999972
0
LINE
8
BLACK
6
CONTINUOUS
10
104.7249999999999943
20
-90.4874999999999972
11
104.7249999999999943
21
-85.7749999999999915
0
LINE
8
BLACK
6
CONTINUOUS
10
104.7249999999999943
20
-85.7749999999999915
11
85.7249999999999943
21
-85.7749999999999915
0
LINE
8
BLACK
6
CONTINUOUS
10
85.7249999999999943
20
-85.7749999999999915
11
66.7249999999999943
21
-85.7749999999999915
0
LINE
8
BLACK
6
CONTINUOUS
10
66.7249999999999943
20
-85.7749999999999915
11
66.7249999999999943
21
-95.25
0
LINE
8
BLACK
6
CONTINUOUS
10
66.7249999999999943
20
-95.25
11
66.721193999999997
21
-95.269133999999994
0
LINE
8
BLACK
6
CONTINUOUS
10
66.721193999999997
20
-95.269133999999994
11
66.6941339999999911
21
-95.2961939999999998
0
LINE
8
BLACK
6
CONTINUOUS
10
66.6941339999999911
20
-95.2961939999999998
11
66.6749999999999972
21
-95.2999999999999972
0
LINE
8
BLACK
6
CONTINUOUS
10
66.6749999999999972
20
-95.2999999999999972
11
47.625
21
-95.2999999999999972
0
LINE
8
BLACK
6
CONTINUOUS
10
47.625
20
-95.2999999999999972
11
28.5749999999999993
21
-95.2999999999999972
0
LINE
8
BLACK
6
CONTINUOUS
10
28.5749999999999993
20
-95.2999999999999972
11
28.5558659999999982
21
-95.2961939999999998
0
LINE
8
BLACK
6
CONTINUOUS
10
28.5558659999999982
20
-95.2961939999999998
11
28.5288059999999994
21
-95.269133999999994
0
LINE
8
BLACK
6
CONTINUOUS
10
28.5288059999999994
20
-95.269133999999994
11
28.5249999999999986
21
-95.25
0
LINE
8
BLACK
6
CONTINUOUS
10
28.5249999999999986
20
-95.25
11
28.5249999999999986
21
-76.2000000000000028
0
LINE
8
BLACK
6
CONTINUOUS
10
28.5249999999999986
20
-76.2000000000000028
11
28.5249999999999986
21
-57.1499999999999986
0
LINE
8
BLACK
6
CONTINUOUS
10
28.5249999999999986
20
-57.1499999999999986
11
28.5249999999999986
21
-38.1000000000000014
0
LINE
8
BLACK
6
CONTINUOUS
10
28.5249999999999986
20
-38.1000000000000014
11
28.5288059999999994
21
-38.0808660000000003
0
LINE
8
BLACK
6
CONTINUOUS
10
28.5288059999999994
20
-38.0808660000000003
11
28.5558659999999982
21
-38.0538060000000016
0
LINE
8
BLACK
6
CONTINUOUS
10
28.5558659999999982
20
-38.0538060000000016
11
28.5749999999999993
21
-38.0499999999999972
0
LINE
8
BLACK
6
CONTINUOUS
10
28.5749999999999993
20
-38.0499999999999972
11
47.625
21
-38.0499999999999972
0
LINE
8
BLACK
6
CONTINUOUS
10
47.625
20
-38.0499999999999972
11
66.625
21
-38.0499999999999972
0
LINE
8
BLACK
6
CONTINUOUS
10
66.625
20
-38.0499999999999972
11
66.625
21
-28.5749999999999993
0
LINE
8
BLACK
6
CONTINUOUS
10
66.625
20
-28.5749999999999993
11
66.6288059999999973
21
-28.5558659999999982
0
LINE
8
BLACK
6
CONTINUOUS
10
66.6288059999999973
20
-28.5558659999999982
11
66.6558660000000032
21
-28.5288059999999994
0
LINE
8
BLACK
6
CONTINUOUS
10
66.6558660000000032
20
-28.5288059999999994
11
66.6749999999999972
21
-28.5249999999999986
0
LINE
8
BLACK
6
CONTINUOUS
10
66.6749999999999972
20
-28.5249999999999986
11
85.7249999999999943
21
-28.5249999999999986
0
LINE
8
BLACK
6
CONTINUOUS
10
140.0674999999999955
20
-125.7475939999999923
11
140.0674999999999955
21
-128.3355740000000083
0
LINE
8
BLACK
6
CONTINUOUS
10
140.0674999999999955
20
-128.3355740000000083
11
158.287036999999998
21
-131.5481699999999989
0
LINE
8
BLACK
6
CONTINUOUS
10
158.287036999999998
20
-131.5481699999999989
11
161.5776699999999835
21
-112.8860619999999955
0
LINE
8
BLACK
6
CONTINUOUS
10
161.5776699999999835
20
-112.8860619999999955
11
142.9155619999999942
21
-109.5954289999999958
0
LINE
8
BLACK
6
CONTINUOUS
10
142.9155619999999942
20
-109.5954289999999958
11
140.0674999999999955
21
-125.7475939999999923
0
LINE
8
BLACK
6
CONTINUOUS
10
121.0174999999999983
20
-109.5874999999999915
11
121.0174999999999983
21
-128.5374999999999943
0
LINE
8
BLACK
6
CONTINUOUS
10
121.0174999999999983
20
-128.5374999999999943
11
139.9675000000000011
21
-128.5374999999999943
0
LINE
8
BLACK
6
CONTINUOUS
10
139.9675000000000011
20
-128.5374999999999943
11
139.9675000000000011
21
-128.4194829999999854
0
LINE
8
BLACK
6
CONTINUOUS
10
139.9675000000000011
20
-128.4194829999999854
11
139.5583249999999964
21
-128.3473349999999868
0
LINE
8
BLACK
6
CONTINUOUS
10
139.5583249999999964
20
-128.3473349999999868
11
139.540142000000003
21
-128.340264999999988
0
LINE
8
BLACK
6
CONTINUOUS
10
139.540142000000003
20
-128.340264999999988
11
139.5181919999999991
21
-128.3089170000000081
0
LINE
8
BLACK
6
CONTINUOUS
10
139.5181919999999991
20
-128.3089170000000081
11
139.5177669999999921
21
-128.2894129999999961
0
LINE
8
BLACK
6
CONTINUOUS
10
139.5177669999999921
20
-128.2894129999999961
11
139.9675000000000011
21
-125.7388499999999993
0
LINE
8
BLACK
6
CONTINUOUS
10
139.9675000000000011
20
-125.7388499999999993
11
139.9675000000000011
21
-109.5874999999999915
0
LINE
8
BLACK
6
CONTINUOUS
10
139.9675000000000011
20
-109.5874999999999915
11
123.8249999999999886
21
-109.5874999999999915
0
LINE
8
BLACK
6
CONTINUOUS
10
123.8249999999999886
20
-109.5874999999999915
11
121.0174999999999983
21
-109.5874999999999915
0
LINE
8
BLACK
6
CONTINUOUS
10
139.6249289999999803
20
-128.257536999999985
11
139.9675000000000011
21
-128.3179409999999905
0
LINE
8
BLACK
6
CONTINUOUS
10
139.9675000000000011
20
-128.3179409999999905
11
139.9675000000000011
21
-126.3147219999999891
0
LINE
8
BLACK
6
CONTINUOUS
10
139.9675000000000011
20
-126.3147219999999891
11
139.6249289999999803
21
-128.257536999999985
0
LINE
8
BLACK
6
CONTINUOUS
10
140.0674999999999955
20
-109.5874999999999915
11
140.0674999999999955
21
-125.1717219999999884
0
LINE
8
BLACK
6
CONTINUOUS
10
140.0674999999999955
20
-125.1717219999999884
11
142.8154189999999915
21
-109.5874999999999915
0
LINE
8
BLACK
6
CONTINUOUS
10
142.8154189999999915
20
-109.5874999999999915
11
140.0674999999999955
21
-109.5874999999999915
0
LINE
8
BLACK
6
CONTINUOUS
10
142.9329290000000015
20
-109.4969369999999884
11
161.5950369999999907
21
-112.7875699999999881
0
LINE
8
BLACK
6
CONTINUOUS
10
161.5950369999999907
20
-112.7875699999999881
11
164.8856700000000046
21
-94.1254619999999989
0
LINE
8
BLACK
6
CONTINUOUS
10
164.8856700000000046
20
-94.1254619999999989
11
146.2235619999999869
21
-90.8348289999999992
0
LINE
8
BLACK
6
CONTINUOUS
10
146.2235619999999869
20
-90.8348289999999992
11
142.9329290000000015
21
-109.4969369999999884
0
LINE
8
BLACK
6
CONTINUOUS
10
123.875
20
-90.5374999999999943
11
123.875
21
-109.4874999999999972
0
LINE
8
BLACK
6
CONTINUOUS
10
123.875
20
-109.4874999999999972
11
140.0174999999999841
21
-109.4874999999999972
0
LINE
8
BLACK
6
CONTINUOUS
10
140.0174999999999841
20
-109.4874999999999972
11
142.8249999999999886
21
-109.4874999999999972
0
LINE
8
BLACK
6
CONTINUOUS
10
142.8249999999999886
20
-109.4874999999999972
11
142.8249999999999886
21
-90.5374999999999943
0
LINE
8
BLACK
6
CONTINUOUS
10
142.8249999999999886
20
-90.5374999999999943
11
123.875
21
-90.5374999999999943
0
LINE
8
BLACK
6
CONTINUOUS
10
104.8249999999999886
20
-90.5374999999999943
11
104.8249999999999886
21
-109.4874999999999972
0
LINE
8
BLACK
6
CONTINUOUS
10
104.8249999999999886
20
-109.4874999999999972
11
123.7749999999999915
21
-109.4874999999999972
0
LINE
8
BLACK
6
CONTINUOUS
10
123.7749999999999915
20
-109.4874999999999972
11
123.7749999999999915
21
-90.5374999999999943
0
LINE
8
BLACK
6
CONTINUOUS
10
123.7749999999999915
20
-90.5374999999999943
11
104.8249999999999886
21
-90.5374999999999943
0
LINE
8
BLACK
6
CONTINUOUS
10
47.6749999999999972
20
-76.25
11
47.6749999999999972
21
-95.1999999999999886
0
LINE
8
BLACK
6
CONTINUOUS
10
47.6749999999999972
20
-95.1999999999999886
11
66.625
21
-95.1999999999999886
0
LINE
8
BLACK
6
CONTINUOUS
10
66.625
20
-95.1999999999999886
11
66.625
21
-76.25
0
LINE
8
BLACK
6
CONTINUOUS
10
66.625
20
-76.25
11
47.6749999999999972
21
-76.25
0
LINE
8
BLACK
6
CONTINUOUS
10
28.625
20
-76.25
11
28.625
21
-95.1999999999999886
0
LINE
8
BLACK
6
CONTINUOUS
10
28.625
20
-95.1999999999999886
11
47.5749999999999957
21
-95.1999999999999886
0
LINE
8
BLACK
6
CONTINUOUS
10
47.5749999999999957
20
-95.1999999999999886
11
47.5749999999999957
21
-76.25
0
LINE
8
BLACK
6
CONTINUOUS
10
47.5749999999999957
20
-76.25
11
28.625
21
-76.25
0
LINE
8
BLACK
6
CONTINUOUS
10
123.875
20
-71.4874999999999972
11
123.875
21
-90.4375
0
LINE
8
BLACK
6
CONTINUOUS
10
123.875
20
-90.4375
11
142.8249999999999886
21
-90.4375
0
LINE
8
BLACK
6
CONTINUOUS
10
142.8249999999999886
20
-90.4375
11
142.8249999999999886
21
-71.4874999999999972
0
LINE
8
BLACK
6
CONTINUOUS
10
142.8249999999999886
20
-71.4874999999999972
11
123.875
21
-71.4874999999999972
0
LINE
8
BLACK
6
CONTINUOUS
10
104.8249999999999886
20
-71.4874999999999972
11
104.8249999999999886
21
-90.4375
0
LINE
8
BLACK
6
CONTINUOUS
10
104.8249999999999886
20
-90.4375
11
123.7749999999999915
21
-90.4375
0
LINE
8
BLACK
6
CONTINUOUS
10
123.7749999999999915
20
-90.4375
11
123.7749999999999915
21
-71.4874999999999972
0
LINE
8
BLACK
6
CONTINUOUS
10
123.7749999999999915
20
-71.4874999999999972
11
104.8249999999999886
21
-71.4874999999999972
0
LINE
8
BLACK
6
CONTINUOUS
10
85.7749999999999915
20
-66.7249999999999943
11
85.7749999999999915
21
-85.6749999999999972
0
LINE
8
BLACK
6
CONTINUOUS
10
85.7749999999999915
20
-85.6749999999999972
11
104.7249999999999943
21
-85.6749999999999972
0
LINE
8
BLACK
6
CONTINUOUS
10
104.7249999999999943
20
-85.6749999999999972
11
104.7249999999999943
21
-71.4375
0
LINE
8
BLACK
6
CONTINUOUS
10
104.7249999999999943
20
-71.4375
11
104.7249999999999943
21
-66.7249999999999943
0
LINE
8
BLACK
6
CONTINUOUS
10
104.7249999999999943
20
-66.7249999999999943
11
85.7749999999999915
21
-66.7249999999999943
0
LINE
8
BLACK
6
CONTINUOUS
10
66.7249999999999943
20
-66.7249999999999943
11
66.7249999999999943
21
-76.2000000000000028
0
LINE
8
BLACK
6
CONTINUOUS
10
66.7249999999999943
20
-76.2000000000000028
11
66.7249999999999943
21
-85.6749999999999972
0
LINE
8
BLACK
6
CONTINUOUS
10
66.7249999999999943
20
-85.6749999999999972
11
85.6749999999999972
21
-85.6749999999999972
0
LINE
8
BLACK
6
CONTINUOUS
10
85.6749999999999972
20
-85.6749999999999972
11
85.6749999999999972
21
-66.7249999999999943
0
LINE
8
BLACK
6
CONTINUOUS
10
85.6749999999999972
20
-66.7249999999999943
11
66.7249999999999943
21
-66.7249999999999943
0
LINE
8
BLACK
6
CONTINUOUS
10
47.6749999999999972
20
-57.1999999999999957
11
47.6749999999999972
21
-76.1499999999999915
0
LINE
8
BLACK
6
CONTINUOUS
10
47.6749999999999972
20
-76.1499999999999915
11
66.625
21
-76.1499999999999915
0
LINE
8
BLACK
6
CONTINUOUS
10
66.625
20
-76.1499999999999915
11
66.625
21
-66.6749999999999972
0
LINE
8
BLACK
6
CONTINUOUS
10
66.625
20
-66.6749999999999972
11
66.625
21
-57.1999999999999957
0
LINE
8
BLACK
6
CONTINUOUS
10
66.625
20
-57.1999999999999957
11
47.6749999999999972
21
-57.1999999999999957
0
LINE
8
BLACK
6
CONTINUOUS
10
28.625
20
-57.1999999999999957
11
28.625
21
-76.1499999999999915
0
LINE
8
BLACK
6
CONTINUOUS
10
28.625
20
-76.1499999999999915
11
47.5749999999999957
21
-76.1499999999999915
0
LINE
8
BLACK
6
CONTINUOUS
10
47.5749999999999957
20
-76.1499999999999915
11
47.5749999999999957
21
-57.1999999999999957
0
LINE
8
BLACK
6
CONTINUOUS
10
47.5749999999999957
20
-57.1999999999999957
11
28.625
21
-57.1999999999999957
0
LINE
8
BLACK
6
CONTINUOUS
10
123.875
20
-52.4375
11
123.875
21
-71.3875000000000028
0
LINE
8
BLACK
6
CONTINUOUS
10
123.875
20
-71.3875000000000028
11
142.8249999999999886
21
-71.3875000000000028
0
LINE
8
BLACK
6
CONTINUOUS
10
142.8249999999999886
20
-71.3875000000000028
11
142.8249999999999886
21
-52.4375
0
LINE
8
BLACK
6
CONTINUOUS
10
142.8249999999999886
20
-52.4375
11
123.875
21
-52.4375
0
LINE
8
BLACK
6
CONTINUOUS
10
104.8249999999999886
20
-52.4375
11
104.8249999999999886
21
-66.6749999999999972
0
LINE
8
BLACK
6
CONTINUOUS
10
104.8249999999999886
20
-66.6749999999999972
11
104.8249999999999886
21
-71.3875000000000028
0
LINE
8
BLACK
6
CONTINUOUS
10
104.8249999999999886
20
-71.3875000000000028
11
123.7749999999999915
21
-71.3875000000000028
0
LINE
8
BLACK
6
CONTINUOUS
10
123.7749999999999915
20
-71.3875000000000028
11
123.7749999999999915
21
-52.4375
0
LINE
8
BLACK
6
CONTINUOUS
10
123.7749999999999915
20
-52.4375
11
104.8249999999999886
21
-52.4375
0
LINE
8
BLACK
6
CONTINUOUS
10
85.7749999999999915
20
-47.6749999999999972
11
85.7749999999999915
21
-66.625
0
LINE
8
BLACK
6
CONTINUOUS
10
85.7749999999999915
20
-66.625
11
104.7249999999999943
21
-66.625
0
LINE
8
BLACK
6
CONTINUOUS
10
104.7249999999999943
20
-66.625
11
104.7249999999999943
21
-52.3874999999999957
0
LINE
8
BLACK
6
CONTINUOUS
10
104.7249999999999943
20
-52.3874999999999957
11
104.7249999999999943
21
-47.6749999999999972
0
LINE
8
BLACK
6
CONTINUOUS
10
104.7249999999999943
20
-47.6749999999999972
11
85.7749999999999915
21
-47.6749999999999972
0
LINE
8
BLACK
6
CONTINUOUS
10
66.7249999999999943
20
-47.6749999999999972
11
66.7249999999999943
21
-57.1499999999999986
0
LINE
8
BLACK
6
CONTINUOUS
10
66.7249999999999943
20
-57.1499999999999986
11
66.7249999999999943
21
-66.625
0
LINE
8
BLACK
6
CONTINUOUS
10
66.7249999999999943
20
-66.625
11
85.6749999999999972
21
-66.625
0
LINE
8
BLACK
6
CONTINUOUS
10
85.6749999999999972
20
-66.625
11
85.6749999999999972
21
-47.6749999999999972
0
LINE
8
BLACK
6
CONTINUOUS
10
85.6749999999999972
20
-47.6749999999999972
11
66.7249999999999943
21
-47.6749999999999972
0
LINE
8
BLACK
6
CONTINUOUS
10
47.6749999999999972
20
-38.1499999999999986
11
47.6749999999999972
21
-57.0999999999999943
0
LINE
8
BLACK
6
CONTINUOUS
10
47.6749999999999972
20
-57.0999999999999943
11
66.625
21
-57.0999999999999943
0
LINE
8
BLACK
6
CONTINUOUS
10
66.625
20
-57.0999999999999943
11
66.625
21
-47.625
0
LINE
8
BLACK
6
CONTINUOUS
10
66.625
20
-47.625
11
66.625
21
-38.1499999999999986
0
LINE
8
BLACK
6
CONTINUOUS
10
66.625
20
-38.1499999999999986
11
47.6749999999999972
21
-38.1499999999999986
0
LINE
8
BLACK
6
CONTINUOUS
10
28.625
20
-38.1499999999999986
11
28.625
21
-57.0999999999999943
0
LINE
8
BLACK
6
CONTINUOUS
10
28.625
20
-57.0999999999999943
11
47.5749999999999957
21
-57.0999999999999943
0
LINE
8
BLACK
6
CONTINUOUS
10
47.5749999999999957
20
-57.0999999999999943
11
47.5749999999999957
21
-38.1499999999999986
0
LINE
8
BLACK
6
CONTINUOUS
10
47.5749999999999957
20
-38.1499999999999986
11
28.625
21
-38.1499999999999986
0
LINE
8
BLACK
6
CONTINUOUS
10
123.875
20
-33.3874999999999957
11
123.875
21
-52.3374999999999986
0
LINE
8
BLACK
6
CONTINUOUS
10
123.875
20
-52.3374999999999986
11
142.8249999999999886
21
-52.3374999999999986
0
LINE
8
BLACK
6
CONTINUOUS
10
142.8249999999999886
20
-52.3374999999999986
11
142.8249999999999886
21
-33.3874999999999957
0
LINE
8
BLACK
6
CONTINUOUS
10
142.8249999999999886
20
-33.3874999999999957
11
123.875
21
-33.3874999999999957
0
LINE
8
BLACK
6
CONTINUOUS
10
104.8249999999999886
20
-33.3874999999999957
11
104.8249999999999886
21
-47.625
0
LINE
8
BLACK
6
CONTINUOUS
10
104.8249999999999886
20
-47.625
11
104.8249999999999886
21
-52.3374999999999986
0
LINE
8
BLACK
6
CONTINUOUS
10
104.8249999999999886
20
-52.3374999999999986
11
123.7749999999999915
21
-52.3374999999999986
0
LINE
8
BLACK
6
CONTINUOUS
10
123.7749999999999915
20
-52.3374999999999986
11
123.7749999999999915
21
-33.3874999999999957
0
LINE
8
BLACK
6
CONTINUOUS
10
123.7749999999999915
20
-33.3874999999999957
11
104.8249999999999886
21
-33.3874999999999957
0
LINE
8
BLACK
6
CONTINUOUS
10
85.7749999999999915
20
-28.625
11
85.7749999999999915
21
-47.5749999999999957
0
LINE
8
BLACK
6
CONTINUOUS
10
85.7749999999999915
20
-47.5749999999999957
11
104.7249999999999943
21
-47.5749999999999957
0
LINE
8
BLACK
6
CONTINUOUS
10
104.7249999999999943
20
-47.5749999999999957
11
104.7249999999999943
21
-33.3374999999999986
0
LINE
8
BLACK
6
CONTINUOUS
10
104.7249999999999943
20
-33.3374999999999986
11
104.7249999999999943
21
-28.625
0
LINE
8
BLACK
6
CONTINUOUS
10
104.7249999999999943
20
-28.625
11
85.7749999999999915
21
-28.625
0
LINE
8
BLACK
6
CONTINUOUS
10
66.7249999999999943
20
-28.625
11
66.7249999999999943
21
-38.1000000000000014
0
LINE
8
BLACK
6
CONTINUOUS
10
66.7249999999999943
20
-38.1000000000000014
11
66.7249999999999943
21
-47.5749999999999957
0
LINE
8
BLACK
6
CONTINUOUS
10
66.7249999999999943
20
-47.5749999999999957
11
85.6749999999999972
21
-47.5749999999999957
0
LINE
8
BLACK
6
CONTINUOUS
10
85.6749999999999972
20
-47.5749999999999957
11
85.6749999999999972
21
-28.625
0
LINE
8
BLACK
6
CONTINUOUS
10
85.6749999999999972
20
-28.625
11
66.7249999999999943
21
-28.625
  0
ENDSEC
  0
EOF
