  0
SECTION
  2
HEADER
  9
$ANGBASE
  50
0.0
  9
$ANGDIR
  70
1
  9
$MEASUREMENT
  70
1
  0
ENDSEC
  0
SECTION
  2
TABLES
  0
TABLE
  2
LTYPE
  70
4
  0
LTYPE
  5
40F
  2
CONTINUOUS
  70
0
  3
Solid line
  72
65
  73
0
  40
0.0
  0
LTYPE
  5
410
  2
DASHDOT
 70
0
  3
Dash Dot ____ _ ____ _
 72
65
 73
4
 40
2.0
 49
1.25
 49
-0.25
 49
0.25
 49
-0.25
  0
LTYPE
  5
411
  2
DASHED
 70
0
  3
Dashed __ __ __ __ __
 72
65
 73
2
 40
0.75
 49
0.5
 49
-0.25
  0
LTYPE
  5
43B
  2
DOTTED
 70
0
  3
Dotted .  .  .  .
 72
65
 73
2
 40
0.2
 49
0.0
 49
-0.2
  0
ENDTAB
  0
TABLE
  2
STYLE
  70
4
  0
STYLE
  2
KICAD
  70
0
  40
0
  41
1
  42
1
  50
0
  71
0
  3
isocp.shx
  0
STYLE
  2
KICADB
  70
0
  40
0
  41
1
  42
1
  50
0
  71
0
  3
isocp.shx
  0
STYLE
  2
KICADI
  70
0
  40
0
  41
1
  42
1
  50
15
  71
0
  3
isocp.shx
  0
STYLE
  2
KICADBI
  70
0
  40
0
  41
1
  42
1
  50
15
  71
0
  3
isocp.shx
  0
ENDTAB
  0
TABLE
  2
LAYER
  70
1
  0
LAYER
  2
BLACK
  70
0
  62
7
  6
CONTINUOUS
  0
ENDTAB
  0
ENDSEC
  0
SECTION
  2
ENTITIES
0
LINE
8
BLACK
6
CONTINUOUS
10
104.7941339999999997
20
-28.5288059999999994
11
104.8211939999999913
21
-28.5558659999999982
0
LINE
8
BLACK
6
CONTINUOUS
10
104.8211939999999913
20
-28.5558659999999982
11
104.8249999999999886
21
-28.5749999999999993
0
LINE
8
BLACK
6
CONTINUOUS
10
104.8249999999999886
20
-28.5749999999999993
11
104.8249999999999886
21
-33.2875000000000014
0
LINE
8
BLACK
6
CONTINUOUS
10
104.8249999999999886
20
-33.2875000000000014
11
142.875
21
-33.2875000000000014
0
LINE
8
BLACK
6
CONTINUOUS
10
142.875
20
-33.2875000000000014
11
170.
21
-33.2875000000000014
0
LINE
8
BLACK
6
CONTINUOUS
10
170.
20
-33.2875000000000014
11
170.0191339999999798
21
-33.2913059999999987
0
LINE
8
BLACK
6
CONTINUOUS
10
170.0191339999999798
20
-33.2913059999999987
11
170.0191360000000032
21
-33.2913080000000008
0
LINE
8
BLACK
6
CONTINUOUS
10
170.0191360000000032
20
-33.2913080000000008
11
170.0191409999999905
21
-33.2913089999999983
0
LINE
8
BLACK
6
CONTINUOUS
10
170.0191409999999905
20
-33.2913089999999983
11
170.0326689999999985
21
-33.3048409999999961
0
LINE
8
BLACK
6
CONTINUOUS
10
170.0326689999999985
20
-33.3048409999999961
11
170.0461939999999856
21
-33.3183659999999975
0
LINE
8
BLACK
6
CONTINUOUS
10
170.0461939999999856
20
-33.3183659999999975
11
170.0461939999999856
21
-33.318368999999997
0
LINE
8
BLACK
6
CONTINUOUS
10
170.0461939999999856
20
-33.318368999999997
11
170.0461970000000065
21
-33.3183730000000011
0
LINE
8
BLACK
6
CONTINUOUS
10
170.0461970000000065
20
-33.3183730000000011
11
170.0499999999999829
21
-33.3375069999999951
0
LINE
8
BLACK
6
CONTINUOUS
10
170.0499999999999829
20
-33.3375069999999951
11
170.0425019999999847
21
-82.0342339999999979
0
LINE
8
BLACK
6
CONTINUOUS
10
170.0425019999999847
20
-82.0342339999999979
11
179.855952000000002
21
-96.0438130000000001
0
LINE
8
BLACK
6
CONTINUOUS
10
179.855952000000002
20
-96.0438130000000001
11
179.8637459999999919
21
-96.0615179999999924
0
LINE
8
BLACK
6
CONTINUOUS
10
179.8637459999999919
20
-96.0615179999999924
11
179.8637949999999819
21
-96.0615869999999887
0
LINE
8
BLACK
6
CONTINUOUS
10
179.8637949999999819
20
-96.0615869999999887
11
179.8637959999999794
21
-96.0616299999999939
0
LINE
8
BLACK
6
CONTINUOUS
10
179.8637959999999794
20
-96.0616299999999939
11
179.8638129999999933
21
-96.0616689999999949
0
LINE
8
BLACK
6
CONTINUOUS
10
179.8638129999999933
20
-96.0616689999999949
11
179.8637980000000027
21
-96.0617489999999918
0
LINE
8
BLACK
6
CONTINUOUS
10
179.8637980000000027
20
-96.0617489999999918
11
179.8642559999999833
21
-96.0810910000000007
0
LINE
8
BLACK
6
CONTINUOUS
10
179.8642559999999833
20
-96.0810910000000007
11
178.804255999999981
21
-102.1585910000000013
0
LINE
8
BLACK
6
CONTINUOUS
10
178.804255999999981
20
-102.1585910000000013
11
178.7972189999999841
21
-102.1767859999999928
0
LINE
8
BLACK
6
CONTINUOUS
10
178.7972189999999841
20
-102.1767859999999928
11
178.7971809999999948
21
-102.1768119999999982
0
LINE
8
BLACK
6
CONTINUOUS
10
178.7971809999999948
20
-102.1768119999999982
11
178.7971739999999841
21
-102.1768569999999983
0
LINE
8
BLACK
6
CONTINUOUS
10
178.7971739999999841
20
-102.1768569999999983
11
178.7815569999999923
21
-102.1877949999999942
0
LINE
8
BLACK
6
CONTINUOUS
10
178.7815569999999923
20
-102.1877949999999942
11
178.7659119999999859
21
-102.1987949999999898
0
LINE
8
BLACK
6
CONTINUOUS
10
178.7659119999999859
20
-102.1987949999999898
11
178.7658659999999884
21
-102.1987869999999958
0
LINE
8
BLACK
6
CONTINUOUS
10
178.7658659999999884
20
-102.1987869999999958
11
178.765829999999994
21
-102.1988130000000012
0
LINE
8
BLACK
6
CONTINUOUS
10
178.765829999999994
20
-102.1988130000000012
11
178.7463259999999821
21
-102.1992419999999981
0
LINE
8
BLACK
6
CONTINUOUS
10
178.7463259999999821
20
-102.1992419999999981
11
164.0229799999999898
21
-99.6058400000000006
0
LINE
8
BLACK
6
CONTINUOUS
10
164.0229799999999898
20
-99.6058400000000006
11
158.3767399999999839
21
-131.6136860000000013
0
LINE
8
BLACK
6
CONTINUOUS
10
158.3767399999999839
20
-131.6136860000000013
11
158.3700519999999869
21
-131.6308799999999906
0
LINE
8
BLACK
6
CONTINUOUS
10
158.3700519999999869
20
-131.6308799999999906
11
158.3699680000000001
21
-131.6313910000000078
0
LINE
8
BLACK
6
CONTINUOUS
10
158.3699680000000001
20
-131.6313910000000078
11
158.3698090000000036
21
-131.6315040000000067
0
LINE
8
BLACK
6
CONTINUOUS
10
158.3698090000000036
20
-131.6315040000000067
11
158.3696679999999901
21
-131.6318679999999972
0
LINE
8
BLACK
6
CONTINUOUS
10
158.3696679999999901
20
-131.6318679999999972
11
158.3541830000000061
21
-131.6427079999999989
0
LINE
8
BLACK
6
CONTINUOUS
10
158.3541830000000061
20
-131.6427079999999989
11
158.3388679999999908
21
-131.6536899999999832
0
LINE
8
BLACK
6
CONTINUOUS
10
158.3388679999999908
20
-131.6536899999999832
11
158.3384790000000066
21
-131.6537019999999814
0
LINE
8
BLACK
6
CONTINUOUS
10
158.3384790000000066
20
-131.6537019999999814
11
158.3383179999999868
21
-131.6538160000000062
0
LINE
8
BLACK
6
CONTINUOUS
10
158.3383179999999868
20
-131.6538160000000062
11
158.3378029999999796
21
-131.6537249999999801
0
LINE
8
BLACK
6
CONTINUOUS
10
158.3378029999999796
20
-131.6537249999999801
11
158.3193689999999947
21
-131.6543340000000057
0
LINE
8
BLACK
6
CONTINUOUS
10
158.3193689999999947
20
-131.6543340000000057
11
140.0134050000000059
21
-128.6374999999999886
0
LINE
8
BLACK
6
CONTINUOUS
10
140.0134050000000059
20
-128.6374999999999886
11
120.9675000000000011
21
-128.6374999999999886
0
LINE
8
BLACK
6
CONTINUOUS
10
120.9675000000000011
20
-128.6374999999999886
11
120.9483659999999929
21
-128.6336939999999913
0
LINE
8
BLACK
6
CONTINUOUS
10
120.9483659999999929
20
-128.6336939999999913
11
120.9468419999999895
21
-128.6321700000000021
0
LINE
8
BLACK
6
CONTINUOUS
10
120.9468419999999895
20
-128.6321700000000021
11
120.9446949999999958
21
-128.6319959999999867
0
LINE
8
BLACK
6
CONTINUOUS
10
120.9446949999999958
20
-128.6319959999999867
11
120.9294029999999935
21
-128.6198819999999898
0
LINE
8
BLACK
6
CONTINUOUS
10
120.9294029999999935
20
-128.6198819999999898
11
104.7518779999999907
21
-109.587498999999994
0
LINE
8
BLACK
6
CONTINUOUS
10
104.7518779999999907
20
-109.587498999999994
11
66.6774989999999974
21
-109.5869999999999891
0
LINE
8
BLACK
6
CONTINUOUS
10
66.6774989999999974
20
-109.5869999999999891
11
66.6583650000000034
21
-109.5831939999999918
0
LINE
8
BLACK
6
CONTINUOUS
10
66.6583650000000034
20
-109.5831939999999918
11
66.6583589999999901
21
-109.5831879999999927
0
LINE
8
BLACK
6
CONTINUOUS
10
66.6583589999999901
20
-109.5831879999999927
11
66.6583499999999987
21
-109.5831879999999927
0
LINE
8
BLACK
6
CONTINUOUS
10
66.6583499999999987
20
-109.5831879999999927
11
66.6421330000000012
21
-109.5723440000000011
0
LINE
8
BLACK
6
CONTINUOUS
10
66.6421330000000012
20
-109.5723440000000011
11
52.3792789999999968
21
-95.2999999999999972
0
LINE
8
BLACK
6
CONTINUOUS
10
52.3792789999999968
20
-95.2999999999999972
11
28.5749999999999993
21
-95.2999999999999972
0
LINE
8
BLACK
6
CONTINUOUS
10
28.5749999999999993
20
-95.2999999999999972
11
28.5558659999999982
21
-95.2961939999999998
0
LINE
8
BLACK
6
CONTINUOUS
10
28.5558659999999982
20
-95.2961939999999998
11
28.5288059999999994
21
-95.269133999999994
0
LINE
8
BLACK
6
CONTINUOUS
10
28.5288059999999994
20
-95.269133999999994
11
28.5249999999999986
21
-95.25
0
LINE
8
BLACK
6
CONTINUOUS
10
28.5249999999999986
20
-95.25
11
28.5249999999999986
21
-38.1000000000000014
0
LINE
8
BLACK
6
CONTINUOUS
10
28.5249999999999986
20
-38.1000000000000014
11
28.5288059999999994
21
-38.0808660000000003
0
LINE
8
BLACK
6
CONTINUOUS
10
28.5288059999999994
20
-38.0808660000000003
11
28.5558659999999982
21
-38.0538060000000016
0
LINE
8
BLACK
6
CONTINUOUS
10
28.5558659999999982
20
-38.0538060000000016
11
28.5749999999999993
21
-38.0499999999999972
0
LINE
8
BLACK
6
CONTINUOUS
10
28.5749999999999993
20
-38.0499999999999972
11
66.625
21
-38.0499999999999972
0
LINE
8
BLACK
6
CONTINUOUS
10
66.625
20
-38.0499999999999972
11
66.625
21
-28.5749999999999993
0
LINE
8
BLACK
6
CONTINUOUS
10
66.625
20
-28.5749999999999993
11
66.6288059999999973
21
-28.5558659999999982
0
LINE
8
BLACK
6
CONTINUOUS
10
66.6288059999999973
20
-28.5558659999999982
11
66.6558660000000032
21
-28.5288059999999994
0
LINE
8
BLACK
6
CONTINUOUS
10
66.6558660000000032
20
-28.5288059999999994
11
66.6749999999999972
21
-28.5249999999999986
0
LINE
8
BLACK
6
CONTINUOUS
10
66.6749999999999972
20
-28.5249999999999986
11
104.7749999999999915
21
-28.5249999999999986
0
LINE
8
BLACK
6
CONTINUOUS
10
104.7749999999999915
20
-28.5249999999999986
11
104.7941339999999997
21
-28.5288059999999994
0
LINE
8
BLACK
6
CONTINUOUS
10
66.7249999999999943
20
-28.625
11
66.7249999999999943
21
-38.1000000000000014
0
LINE
8
BLACK
6
CONTINUOUS
10
66.7249999999999943
20
-38.1000000000000014
11
66.721193999999997
21
-38.1191339999999954
0
LINE
8
BLACK
6
CONTINUOUS
10
66.721193999999997
20
-38.1191339999999954
11
66.6941339999999911
21
-38.1461940000000013
0
LINE
8
BLACK
6
CONTINUOUS
10
66.6941339999999911
20
-38.1461940000000013
11
66.6749999999999972
21
-38.1499999999999986
0
LINE
8
BLACK
6
CONTINUOUS
10
66.6749999999999972
20
-38.1499999999999986
11
28.625
21
-38.1499999999999986
0
LINE
8
BLACK
6
CONTINUOUS
10
28.625
20
-38.1499999999999986
11
28.625
21
-95.1999999999999886
0
LINE
8
BLACK
6
CONTINUOUS
10
28.625
20
-95.1999999999999886
11
52.3999999999999986
21
-95.1999999999999886
0
LINE
8
BLACK
6
CONTINUOUS
10
52.3999999999999986
20
-95.1999999999999886
11
52.4191339999999997
21
-95.2038060000000002
0
LINE
8
BLACK
6
CONTINUOUS
10
52.4191339999999997
20
-95.2038060000000002
11
52.4191389999999942
21
-95.2038110000000017
0
LINE
8
BLACK
6
CONTINUOUS
10
52.4191389999999942
20
-95.2038110000000017
11
52.4191499999999948
21
-95.2038119999999992
0
LINE
8
BLACK
6
CONTINUOUS
10
52.4191499999999948
20
-95.2038119999999992
11
52.4353669999999994
21
-95.2146559999999909
0
LINE
8
BLACK
6
CONTINUOUS
10
52.4353669999999994
20
-95.2146559999999909
11
66.6982199999999921
21
-109.4869999999999948
0
LINE
8
BLACK
6
CONTINUOUS
10
66.6982199999999921
20
-109.4869999999999948
11
104.7750009999999889
21
-109.4874999999999972
0
LINE
8
BLACK
6
CONTINUOUS
10
104.7750009999999889
20
-109.4874999999999972
11
104.7941349999999971
21
-109.4913059999999945
0
LINE
8
BLACK
6
CONTINUOUS
10
104.7941349999999971
20
-109.4913059999999945
11
104.7956579999999889
21
-109.4928290000000004
0
LINE
8
BLACK
6
CONTINUOUS
10
104.7956579999999889
20
-109.4928290000000004
11
104.7978049999999968
21
-109.4930039999999991
0
LINE
8
BLACK
6
CONTINUOUS
10
104.7978049999999968
20
-109.4930039999999991
11
104.8130969999999991
21
-109.505117999999996
0
LINE
8
BLACK
6
CONTINUOUS
10
104.8130969999999991
20
-109.505117999999996
11
120.9906219999999877
21
-128.5374999999999943
0
LINE
8
BLACK
6
CONTINUOUS
10
120.9906219999999877
20
-128.5374999999999943
11
140.0174999999999841
21
-128.5374999999999943
0
LINE
8
BLACK
6
CONTINUOUS
10
140.0174999999999841
20
-128.5374999999999943
11
140.0215239999999994
21
-128.5382999999999925
0
LINE
8
BLACK
6
CONTINUOUS
10
140.0215239999999994
20
-128.5382999999999925
11
140.0256300000000067
21
-128.5381649999999922
0
LINE
8
BLACK
6
CONTINUOUS
10
140.0256300000000067
20
-128.5381649999999922
11
158.286847999999992
21
-131.5476249999999823
0
LINE
8
BLACK
6
CONTINUOUS
10
158.286847999999992
20
-131.5476249999999823
11
163.93325999999999
21
-99.5388140000000021
0
LINE
8
BLACK
6
CONTINUOUS
10
163.93325999999999
20
-99.5388140000000021
11
163.9357550000000003
21
-99.5323989999999981
0
LINE
8
BLACK
6
CONTINUOUS
10
163.9357550000000003
20
-99.5323989999999981
11
163.9378260000000012
21
-99.5206429999999926
0
LINE
8
BLACK
6
CONTINUOUS
10
163.9378260000000012
20
-99.5206429999999926
11
163.9691689999999937
21
-99.4986869999999897
0
LINE
8
BLACK
6
CONTINUOUS
10
163.9691689999999937
20
-99.4986869999999897
11
163.9886740000000032
21
-99.4982579999999928
0
LINE
8
BLACK
6
CONTINUOUS
10
163.9886740000000032
20
-99.4982579999999928
11
178.7143489999999986
21
-102.0920699999999925
0
LINE
8
BLACK
6
CONTINUOUS
10
178.7143489999999986
20
-102.0920699999999925
11
179.7621929999999963
21
-96.0842639999999903
0
LINE
8
BLACK
6
CONTINUOUS
10
179.7621929999999963
20
-96.0842639999999903
11
169.9515480000000025
21
-82.0786859999999905
0
LINE
8
BLACK
6
CONTINUOUS
10
169.9515480000000025
20
-82.0786859999999905
11
169.9481549999999856
21
-82.0709789999999941
0
LINE
8
BLACK
6
CONTINUOUS
10
169.9481549999999856
20
-82.0709789999999941
11
169.9463030000000003
21
-82.0691269999999946
0
LINE
8
BLACK
6
CONTINUOUS
10
169.9463030000000003
20
-82.0691269999999946
11
169.9454499999999939
21
-82.0648350000000022
0
LINE
8
BLACK
6
CONTINUOUS
10
169.9454499999999939
20
-82.0648350000000022
11
169.9436869999999828
21
-82.0608309999999932
0
LINE
8
BLACK
6
CONTINUOUS
10
169.9436869999999828
20
-82.0608309999999932
11
169.9441410000000019
21
-82.0582509999999985
0
LINE
8
BLACK
6
CONTINUOUS
10
169.9441410000000019
20
-82.0582509999999985
11
169.9424999999999955
21
-82.0499920000000031
0
LINE
8
BLACK
6
CONTINUOUS
10
169.9424999999999955
20
-82.0499920000000031
11
169.9499919999999804
21
-33.3874999999999957
0
LINE
8
BLACK
6
CONTINUOUS
10
169.9499919999999804
20
-33.3874999999999957
11
142.875
21
-33.3874999999999957
0
LINE
8
BLACK
6
CONTINUOUS
10
142.875
20
-33.3874999999999957
11
104.7749999999999915
21
-33.3874999999999957
0
LINE
8
BLACK
6
CONTINUOUS
10
104.7749999999999915
20
-33.3874999999999957
11
104.7558659999999975
21
-33.3836939999999984
0
LINE
8
BLACK
6
CONTINUOUS
10
104.7558659999999975
20
-33.3836939999999984
11
104.7288059999999916
21
-33.3566339999999997
0
LINE
8
BLACK
6
CONTINUOUS
10
104.7288059999999916
20
-33.3566339999999997
11
104.7249999999999943
21
-33.3374999999999986
0
LINE
8
BLACK
6
CONTINUOUS
10
104.7249999999999943
20
-33.3374999999999986
11
104.7249999999999943
21
-28.625
0
LINE
8
BLACK
6
CONTINUOUS
10
104.7249999999999943
20
-28.625
11
66.7249999999999943
21
-28.625
  0
ENDSEC
  0
EOF
