  0
SECTION
  2
HEADER
  9
$ANGBASE
  50
0.0
  9
$ANGDIR
  70
1
  9
$MEASUREMENT
  70
1
  0
ENDSEC
  0
SECTION
  2
TABLES
  0
TABLE
  2
LTYPE
  70
4
  0
LTYPE
  5
40F
  2
CONTINUOUS
  70
0
  3
Solid line
  72
65
  73
0
  40
0.0
  0
LTYPE
  5
410
  2
DASHDOT
 70
0
  3
Dash Dot ____ _ ____ _
 72
65
 73
4
 40
2.0
 49
1.25
 49
-0.25
 49
0.25
 49
-0.25
  0
LTYPE
  5
411
  2
DASHED
 70
0
  3
Dashed __ __ __ __ __
 72
65
 73
2
 40
0.75
 49
0.5
 49
-0.25
  0
LTYPE
  5
43B
  2
DOTTED
 70
0
  3
Dotted .  .  .  .
 72
65
 73
2
 40
0.2
 49
0.0
 49
-0.2
  0
ENDTAB
  0
TABLE
  2
STYLE
  70
4
  0
STYLE
  2
KICAD
  70
0
  40
0
  41
1
  42
1
  50
0
  71
0
  3
isocp.shx
  0
STYLE
  2
KICADB
  70
0
  40
0
  41
1
  42
1
  50
0
  71
0
  3
isocp.shx
  0
STYLE
  2
KICADI
  70
0
  40
0
  41
1
  42
1
  50
15
  71
0
  3
isocp.shx
  0
STYLE
  2
KICADBI
  70
0
  40
0
  41
1
  42
1
  50
15
  71
0
  3
isocp.shx
  0
ENDTAB
  0
TABLE
  2
LAYER
  70
1
  0
LAYER
  2
BLACK
  70
0
  62
7
  6
CONTINUOUS
  0
ENDTAB
  0
ENDSEC
  0
SECTION
  2
ENTITIES
0
LINE
8
BLACK
6
CONTINUOUS
10
144.9318649999999877
20
-112.4133679999999913
11
158.719175000000007
21
-114.8444429999999983
0
LINE
8
BLACK
6
CONTINUOUS
10
158.719175000000007
20
-114.8444429999999983
11
158.7373570000000029
21
-114.8515129999999971
0
LINE
8
BLACK
6
CONTINUOUS
10
158.7373570000000029
20
-114.8515129999999971
11
158.7593070000000068
21
-114.8828609999999912
0
LINE
8
BLACK
6
CONTINUOUS
10
158.7593070000000068
20
-114.8828609999999912
11
158.7597319999999854
21
-114.902364999999989
0
LINE
8
BLACK
6
CONTINUOUS
10
158.7597319999999854
20
-114.902364999999989
11
156.3286569999999926
21
-128.6896739999999966
0
LINE
8
BLACK
6
CONTINUOUS
10
156.3286569999999926
20
-128.6896739999999966
11
156.3215869999999938
21
-128.70785699999999
0
LINE
8
BLACK
6
CONTINUOUS
10
156.3215869999999938
20
-128.70785699999999
11
156.2902389999999855
21
-128.7298069999999939
0
LINE
8
BLACK
6
CONTINUOUS
10
156.2902389999999855
20
-128.7298069999999939
11
156.2707350000000019
21
-128.7302320000000009
0
LINE
8
BLACK
6
CONTINUOUS
10
156.2707350000000019
20
-128.7302320000000009
11
142.4834259999999801
21
-126.2991569999999939
0
LINE
8
BLACK
6
CONTINUOUS
10
142.4834259999999801
20
-126.2991569999999939
11
142.4652429999999868
21
-126.2920869999999951
0
LINE
8
BLACK
6
CONTINUOUS
10
142.4652429999999868
20
-126.2920869999999951
11
142.4432929999999828
21
-126.2607390000000009
0
LINE
8
BLACK
6
CONTINUOUS
10
142.4432929999999828
20
-126.2607390000000009
11
142.4428680000000043
21
-126.241234999999989
0
LINE
8
BLACK
6
CONTINUOUS
10
142.4428680000000043
20
-126.241234999999989
11
144.873942999999997
21
-112.4539249999999981
0
LINE
8
BLACK
6
CONTINUOUS
10
144.873942999999997
20
-112.4539249999999981
11
144.8810129999999958
21
-112.435742999999988
0
LINE
8
BLACK
6
CONTINUOUS
10
144.8810129999999958
20
-112.435742999999988
11
144.9123610000000042
21
-112.4137929999999983
0
LINE
8
BLACK
6
CONTINUOUS
10
144.9123610000000042
20
-112.4137929999999983
11
144.9318649999999877
21
-112.4133679999999913
0
LINE
8
BLACK
6
CONTINUOUS
10
142.5500299999999925
20
-126.2093589999999921
11
156.2388589999999908
21
-128.6230689999999868
0
LINE
8
BLACK
6
CONTINUOUS
10
156.2388589999999908
20
-128.6230689999999868
11
158.6525689999999997
21
-114.9342399999999884
0
LINE
8
BLACK
6
CONTINUOUS
10
158.6525689999999997
20
-114.9342399999999884
11
144.9637400000000014
21
-112.5205299999999937
0
LINE
8
BLACK
6
CONTINUOUS
10
144.9637400000000014
20
-112.5205299999999937
11
142.5500299999999925
21
-126.2093589999999921
0
LINE
8
BLACK
6
CONTINUOUS
10
137.5116339999999866
20
-112.0163060000000002
11
137.5386939999999925
21
-112.0433659999999918
0
LINE
8
BLACK
6
CONTINUOUS
10
137.5386939999999925
20
-112.0433659999999918
11
137.5424999999999898
21
-112.0625
0
LINE
8
BLACK
6
CONTINUOUS
10
137.5424999999999898
20
-112.0625
11
137.5424999999999898
21
-126.0625
0
LINE
8
BLACK
6
CONTINUOUS
10
137.5424999999999898
20
-126.0625
11
137.5386939999999925
21
-126.081633999999994
0
LINE
8
BLACK
6
CONTINUOUS
10
137.5386939999999925
20
-126.081633999999994
11
137.5116339999999866
21
-126.1086939999999998
0
LINE
8
BLACK
6
CONTINUOUS
10
137.5116339999999866
20
-126.1086939999999998
11
137.4925000000000068
21
-126.1124999999999972
0
LINE
8
BLACK
6
CONTINUOUS
10
137.4925000000000068
20
-126.1124999999999972
11
123.4924999999999926
21
-126.1124999999999972
0
LINE
8
BLACK
6
CONTINUOUS
10
123.4924999999999926
20
-126.1124999999999972
11
123.4733659999999986
21
-126.1086939999999998
0
LINE
8
BLACK
6
CONTINUOUS
10
123.4733659999999986
20
-126.1086939999999998
11
123.4463059999999928
21
-126.081633999999994
0
LINE
8
BLACK
6
CONTINUOUS
10
123.4463059999999928
20
-126.081633999999994
11
123.4424999999999955
21
-126.0625
0
LINE
8
BLACK
6
CONTINUOUS
10
123.4424999999999955
20
-126.0625
11
123.4424999999999955
21
-112.0625
0
LINE
8
BLACK
6
CONTINUOUS
10
123.4424999999999955
20
-112.0625
11
123.4463059999999928
21
-112.0433659999999918
0
LINE
8
BLACK
6
CONTINUOUS
10
123.4463059999999928
20
-112.0433659999999918
11
123.4733659999999986
21
-112.0163060000000002
0
LINE
8
BLACK
6
CONTINUOUS
10
123.4733659999999986
20
-112.0163060000000002
11
123.4924999999999926
21
-112.0124999999999886
0
LINE
8
BLACK
6
CONTINUOUS
10
123.4924999999999926
20
-112.0124999999999886
11
137.4925000000000068
21
-112.0124999999999886
0
LINE
8
BLACK
6
CONTINUOUS
10
137.4925000000000068
20
-112.0124999999999886
11
137.5116339999999866
21
-112.0163060000000002
0
LINE
8
BLACK
6
CONTINUOUS
10
123.5424999999999898
20
-112.1124999999999972
11
123.5424999999999898
21
-126.0124999999999886
0
LINE
8
BLACK
6
CONTINUOUS
10
123.5424999999999898
20
-126.0124999999999886
11
137.4424999999999955
21
-126.0124999999999886
0
LINE
8
BLACK
6
CONTINUOUS
10
137.4424999999999955
20
-126.0124999999999886
11
137.4424999999999955
21
-112.1124999999999972
0
LINE
8
BLACK
6
CONTINUOUS
10
137.4424999999999955
20
-112.1124999999999972
11
123.5424999999999898
21
-112.1124999999999972
0
LINE
8
BLACK
6
CONTINUOUS
10
148.2398649999999805
20
-93.6527679999999947
11
162.0271749999999997
21
-96.0838430000000017
0
LINE
8
BLACK
6
CONTINUOUS
10
162.0271749999999997
20
-96.0838430000000017
11
162.0453569999999957
21
-96.0909130000000005
0
LINE
8
BLACK
6
CONTINUOUS
10
162.0453569999999957
20
-96.0909130000000005
11
162.0673069999999996
21
-96.1222609999999946
0
LINE
8
BLACK
6
CONTINUOUS
10
162.0673069999999996
20
-96.1222609999999946
11
162.0677320000000066
21
-96.1417649999999924
0
LINE
8
BLACK
6
CONTINUOUS
10
162.0677320000000066
20
-96.1417649999999924
11
159.6366569999999854
21
-109.929074
0
LINE
8
BLACK
6
CONTINUOUS
10
159.6366569999999854
20
-109.929074
11
159.6295869999999866
21
-109.9472569999999934
0
LINE
8
BLACK
6
CONTINUOUS
10
159.6295869999999866
20
-109.9472569999999934
11
159.5982390000000066
21
-109.9692069999999973
0
LINE
8
BLACK
6
CONTINUOUS
10
159.5982390000000066
20
-109.9692069999999973
11
159.5787349999999947
21
-109.9696319999999901
0
LINE
8
BLACK
6
CONTINUOUS
10
159.5787349999999947
20
-109.9696319999999901
11
145.7914260000000013
21
-107.5385569999999973
0
LINE
8
BLACK
6
CONTINUOUS
10
145.7914260000000013
20
-107.5385569999999973
11
145.7732429999999795
21
-107.5314869999999985
0
LINE
8
BLACK
6
CONTINUOUS
10
145.7732429999999795
20
-107.5314869999999985
11
145.751293000000004
21
-107.5001389999999901
0
LINE
8
BLACK
6
CONTINUOUS
10
145.751293000000004
20
-107.5001389999999901
11
145.750867999999997
21
-107.4806349999999924
0
LINE
8
BLACK
6
CONTINUOUS
10
145.750867999999997
20
-107.4806349999999924
11
148.1819429999999898
21
-93.6933250000000015
0
LINE
8
BLACK
6
CONTINUOUS
10
148.1819429999999898
20
-93.6933250000000015
11
148.1890129999999886
21
-93.6751429999999914
0
LINE
8
BLACK
6
CONTINUOUS
10
148.1890129999999886
20
-93.6751429999999914
11
148.2203609999999969
21
-93.6531930000000017
0
LINE
8
BLACK
6
CONTINUOUS
10
148.2203609999999969
20
-93.6531930000000017
11
148.2398649999999805
21
-93.6527679999999947
0
LINE
8
BLACK
6
CONTINUOUS
10
145.8580299999999852
20
-107.4487589999999955
11
159.5468589999999836
21
-109.8624689999999902
0
LINE
8
BLACK
6
CONTINUOUS
10
159.5468589999999836
20
-109.8624689999999902
11
161.9605689999999925
21
-96.1736399999999918
0
LINE
8
BLACK
6
CONTINUOUS
10
161.9605689999999925
20
-96.1736399999999918
11
148.2717399999999941
21
-93.7599299999999971
0
LINE
8
BLACK
6
CONTINUOUS
10
148.2717399999999941
20
-93.7599299999999971
11
145.8580299999999852
21
-107.4487589999999955
0
LINE
8
BLACK
6
CONTINUOUS
10
121.3191339999999911
20
-92.9663059999999888
11
121.346193999999997
21
-92.9933659999999946
0
LINE
8
BLACK
6
CONTINUOUS
10
121.346193999999997
20
-92.9933659999999946
11
121.3499999999999943
21
-93.0125000000000028
0
LINE
8
BLACK
6
CONTINUOUS
10
121.3499999999999943
20
-93.0125000000000028
11
121.3499999999999943
21
-107.0124999999999886
0
LINE
8
BLACK
6
CONTINUOUS
10
121.3499999999999943
20
-107.0124999999999886
11
121.346193999999997
21
-107.0316339999999968
0
LINE
8
BLACK
6
CONTINUOUS
10
121.346193999999997
20
-107.0316339999999968
11
121.3191339999999911
21
-107.0586939999999885
0
LINE
8
BLACK
6
CONTINUOUS
10
121.3191339999999911
20
-107.0586939999999885
11
121.2999999999999972
21
-107.0625
0
LINE
8
BLACK
6
CONTINUOUS
10
121.2999999999999972
20
-107.0625
11
107.2999999999999972
21
-107.0625
0
LINE
8
BLACK
6
CONTINUOUS
10
107.2999999999999972
20
-107.0625
11
107.280865999999989
21
-107.0586939999999885
0
LINE
8
BLACK
6
CONTINUOUS
10
107.280865999999989
20
-107.0586939999999885
11
107.2538059999999973
21
-107.0316339999999968
0
LINE
8
BLACK
6
CONTINUOUS
10
107.2538059999999973
20
-107.0316339999999968
11
107.25
21
-107.0124999999999886
0
LINE
8
BLACK
6
CONTINUOUS
10
107.25
20
-107.0124999999999886
11
107.25
21
-93.0125000000000028
0
LINE
8
BLACK
6
CONTINUOUS
10
107.25
20
-93.0125000000000028
11
107.2538059999999973
21
-92.9933659999999946
0
LINE
8
BLACK
6
CONTINUOUS
10
107.2538059999999973
20
-92.9933659999999946
11
107.280865999999989
21
-92.9663059999999888
0
LINE
8
BLACK
6
CONTINUOUS
10
107.280865999999989
20
-92.9663059999999888
11
107.2999999999999972
21
-92.9624999999999915
0
LINE
8
BLACK
6
CONTINUOUS
10
107.2999999999999972
20
-92.9624999999999915
11
121.2999999999999972
21
-92.9624999999999915
0
LINE
8
BLACK
6
CONTINUOUS
10
121.2999999999999972
20
-92.9624999999999915
11
121.3191339999999911
21
-92.9663059999999888
0
LINE
8
BLACK
6
CONTINUOUS
10
107.3499999999999943
20
-93.0625
11
107.3499999999999943
21
-106.9624999999999915
0
LINE
8
BLACK
6
CONTINUOUS
10
107.3499999999999943
20
-106.9624999999999915
11
121.25
21
-106.9624999999999915
0
LINE
8
BLACK
6
CONTINUOUS
10
121.25
20
-106.9624999999999915
11
121.25
21
-93.0625
0
LINE
8
BLACK
6
CONTINUOUS
10
121.25
20
-93.0625
11
107.3499999999999943
21
-93.0625
0
LINE
8
BLACK
6
CONTINUOUS
10
140.3691340000000025
20
-92.9663059999999888
11
140.39619399999998
21
-92.9933659999999946
0
LINE
8
BLACK
6
CONTINUOUS
10
140.39619399999998
20
-92.9933659999999946
11
140.4000000000000057
21
-93.0125000000000028
0
LINE
8
BLACK
6
CONTINUOUS
10
140.4000000000000057
20
-93.0125000000000028
11
140.4000000000000057
21
-107.0124999999999886
0
LINE
8
BLACK
6
CONTINUOUS
10
140.4000000000000057
20
-107.0124999999999886
11
140.39619399999998
21
-107.0316339999999968
0
LINE
8
BLACK
6
CONTINUOUS
10
140.39619399999998
20
-107.0316339999999968
11
140.3691340000000025
21
-107.0586939999999885
0
LINE
8
BLACK
6
CONTINUOUS
10
140.3691340000000025
20
-107.0586939999999885
11
140.3499999999999943
21
-107.0625
0
LINE
8
BLACK
6
CONTINUOUS
10
140.3499999999999943
20
-107.0625
11
126.3499999999999943
21
-107.0625
0
LINE
8
BLACK
6
CONTINUOUS
10
126.3499999999999943
20
-107.0625
11
126.3308660000000003
21
-107.0586939999999885
0
LINE
8
BLACK
6
CONTINUOUS
10
126.3308660000000003
20
-107.0586939999999885
11
126.3038059999999945
21
-107.0316339999999968
0
LINE
8
BLACK
6
CONTINUOUS
10
126.3038059999999945
20
-107.0316339999999968
11
126.2999999999999972
21
-107.0124999999999886
0
LINE
8
BLACK
6
CONTINUOUS
10
126.2999999999999972
20
-107.0124999999999886
11
126.2999999999999972
21
-93.0125000000000028
0
LINE
8
BLACK
6
CONTINUOUS
10
126.2999999999999972
20
-93.0125000000000028
11
126.3038059999999945
21
-92.9933659999999946
0
LINE
8
BLACK
6
CONTINUOUS
10
126.3038059999999945
20
-92.9933659999999946
11
126.3308660000000003
21
-92.9663059999999888
0
LINE
8
BLACK
6
CONTINUOUS
10
126.3308660000000003
20
-92.9663059999999888
11
126.3499999999999943
21
-92.9624999999999915
0
LINE
8
BLACK
6
CONTINUOUS
10
126.3499999999999943
20
-92.9624999999999915
11
140.3499999999999943
21
-92.9624999999999915
0
LINE
8
BLACK
6
CONTINUOUS
10
140.3499999999999943
20
-92.9624999999999915
11
140.3691340000000025
21
-92.9663059999999888
0
LINE
8
BLACK
6
CONTINUOUS
10
126.3999999999999915
20
-93.0625
11
126.3999999999999915
21
-106.9624999999999915
0
LINE
8
BLACK
6
CONTINUOUS
10
126.3999999999999915
20
-106.9624999999999915
11
140.2999999999999829
21
-106.9624999999999915
0
LINE
8
BLACK
6
CONTINUOUS
10
140.2999999999999829
20
-106.9624999999999915
11
140.2999999999999829
21
-93.0625
0
LINE
8
BLACK
6
CONTINUOUS
10
140.2999999999999829
20
-93.0625
11
126.3999999999999915
21
-93.0625
0
LINE
8
BLACK
6
CONTINUOUS
10
45.1191339999999954
20
-78.6788059999999945
11
45.1461940000000013
21
-78.7058660000000003
0
LINE
8
BLACK
6
CONTINUOUS
10
45.1461940000000013
20
-78.7058660000000003
11
45.1499999999999986
21
-78.7249999999999943
0
LINE
8
BLACK
6
CONTINUOUS
10
45.1499999999999986
20
-78.7249999999999943
11
45.1499999999999986
21
-92.7249999999999943
0
LINE
8
BLACK
6
CONTINUOUS
10
45.1499999999999986
20
-92.7249999999999943
11
45.1461940000000013
21
-92.7441340000000025
0
LINE
8
BLACK
6
CONTINUOUS
10
45.1461940000000013
20
-92.7441340000000025
11
45.1191339999999954
21
-92.7711939999999942
0
LINE
8
BLACK
6
CONTINUOUS
10
45.1191339999999954
20
-92.7711939999999942
11
45.1000000000000014
21
-92.7749999999999915
0
LINE
8
BLACK
6
CONTINUOUS
10
45.1000000000000014
20
-92.7749999999999915
11
31.0999999999999979
21
-92.7749999999999915
0
LINE
8
BLACK
6
CONTINUOUS
10
31.0999999999999979
20
-92.7749999999999915
11
31.0808660000000003
21
-92.7711939999999942
0
LINE
8
BLACK
6
CONTINUOUS
10
31.0808660000000003
20
-92.7711939999999942
11
31.053805999999998
21
-92.7441340000000025
0
LINE
8
BLACK
6
CONTINUOUS
10
31.053805999999998
20
-92.7441340000000025
11
31.0499999999999972
21
-92.7249999999999943
0
LINE
8
BLACK
6
CONTINUOUS
10
31.0499999999999972
20
-92.7249999999999943
11
31.0499999999999972
21
-78.7249999999999943
0
LINE
8
BLACK
6
CONTINUOUS
10
31.0499999999999972
20
-78.7249999999999943
11
31.053805999999998
21
-78.7058660000000003
0
LINE
8
BLACK
6
CONTINUOUS
10
31.053805999999998
20
-78.7058660000000003
11
31.0808660000000003
21
-78.6788059999999945
0
LINE
8
BLACK
6
CONTINUOUS
10
31.0808660000000003
20
-78.6788059999999945
11
31.0999999999999979
21
-78.6749999999999972
0
LINE
8
BLACK
6
CONTINUOUS
10
31.0999999999999979
20
-78.6749999999999972
11
45.1000000000000014
21
-78.6749999999999972
0
LINE
8
BLACK
6
CONTINUOUS
10
45.1000000000000014
20
-78.6749999999999972
11
45.1191339999999954
21
-78.6788059999999945
0
LINE
8
BLACK
6
CONTINUOUS
10
31.1499999999999986
20
-78.7749999999999915
11
31.1499999999999986
21
-92.6749999999999972
0
LINE
8
BLACK
6
CONTINUOUS
10
31.1499999999999986
20
-92.6749999999999972
11
45.0499999999999972
21
-92.6749999999999972
0
LINE
8
BLACK
6
CONTINUOUS
10
45.0499999999999972
20
-92.6749999999999972
11
45.0499999999999972
21
-78.7749999999999915
0
LINE
8
BLACK
6
CONTINUOUS
10
45.0499999999999972
20
-78.7749999999999915
11
31.1499999999999986
21
-78.7749999999999915
0
LINE
8
BLACK
6
CONTINUOUS
10
64.1691339999999997
20
-78.6788059999999945
11
64.1961939999999913
21
-78.7058660000000003
0
LINE
8
BLACK
6
CONTINUOUS
10
64.1961939999999913
20
-78.7058660000000003
11
64.2000000000000028
21
-78.7249999999999943
0
LINE
8
BLACK
6
CONTINUOUS
10
64.2000000000000028
20
-78.7249999999999943
11
64.2000000000000028
21
-92.7249999999999943
0
LINE
8
BLACK
6
CONTINUOUS
10
64.2000000000000028
20
-92.7249999999999943
11
64.1961939999999913
21
-92.7441340000000025
0
LINE
8
BLACK
6
CONTINUOUS
10
64.1961939999999913
20
-92.7441340000000025
11
64.1691339999999997
21
-92.7711939999999942
0
LINE
8
BLACK
6
CONTINUOUS
10
64.1691339999999997
20
-92.7711939999999942
11
64.1499999999999915
21
-92.7749999999999915
0
LINE
8
BLACK
6
CONTINUOUS
10
64.1499999999999915
20
-92.7749999999999915
11
50.1499999999999986
21
-92.7749999999999915
0
LINE
8
BLACK
6
CONTINUOUS
10
50.1499999999999986
20
-92.7749999999999915
11
50.1308659999999975
21
-92.7711939999999942
0
LINE
8
BLACK
6
CONTINUOUS
10
50.1308659999999975
20
-92.7711939999999942
11
50.1038059999999987
21
-92.7441340000000025
0
LINE
8
BLACK
6
CONTINUOUS
10
50.1038059999999987
20
-92.7441340000000025
11
50.0999999999999943
21
-92.7249999999999943
0
LINE
8
BLACK
6
CONTINUOUS
10
50.0999999999999943
20
-92.7249999999999943
11
50.0999999999999943
21
-78.7249999999999943
0
LINE
8
BLACK
6
CONTINUOUS
10
50.0999999999999943
20
-78.7249999999999943
11
50.1038059999999987
21
-78.7058660000000003
0
LINE
8
BLACK
6
CONTINUOUS
10
50.1038059999999987
20
-78.7058660000000003
11
50.1308659999999975
21
-78.6788059999999945
0
LINE
8
BLACK
6
CONTINUOUS
10
50.1308659999999975
20
-78.6788059999999945
11
50.1499999999999986
21
-78.6749999999999972
0
LINE
8
BLACK
6
CONTINUOUS
10
50.1499999999999986
20
-78.6749999999999972
11
64.1499999999999915
21
-78.6749999999999972
0
LINE
8
BLACK
6
CONTINUOUS
10
64.1499999999999915
20
-78.6749999999999972
11
64.1691339999999997
21
-78.6788059999999945
0
LINE
8
BLACK
6
CONTINUOUS
10
50.1999999999999957
20
-78.7749999999999915
11
50.1999999999999957
21
-92.6749999999999972
0
LINE
8
BLACK
6
CONTINUOUS
10
50.1999999999999957
20
-92.6749999999999972
11
64.0999999999999943
21
-92.6749999999999972
0
LINE
8
BLACK
6
CONTINUOUS
10
64.0999999999999943
20
-92.6749999999999972
11
64.0999999999999943
21
-78.7749999999999915
0
LINE
8
BLACK
6
CONTINUOUS
10
64.0999999999999943
20
-78.7749999999999915
11
50.1999999999999957
21
-78.7749999999999915
0
LINE
8
BLACK
6
CONTINUOUS
10
121.3191339999999911
20
-73.9163059999999916
11
121.346193999999997
21
-73.9433659999999975
0
LINE
8
BLACK
6
CONTINUOUS
10
121.346193999999997
20
-73.9433659999999975
11
121.3499999999999943
21
-73.9624999999999915
0
LINE
8
BLACK
6
CONTINUOUS
10
121.3499999999999943
20
-73.9624999999999915
11
121.3499999999999943
21
-87.9624999999999915
0
LINE
8
BLACK
6
CONTINUOUS
10
121.3499999999999943
20
-87.9624999999999915
11
121.346193999999997
21
-87.9816339999999997
0
LINE
8
BLACK
6
CONTINUOUS
10
121.346193999999997
20
-87.9816339999999997
11
121.3191339999999911
21
-88.0086939999999913
0
LINE
8
BLACK
6
CONTINUOUS
10
121.3191339999999911
20
-88.0086939999999913
11
121.2999999999999972
21
-88.0125000000000028
0
LINE
8
BLACK
6
CONTINUOUS
10
121.2999999999999972
20
-88.0125000000000028
11
107.2999999999999972
21
-88.0125000000000028
0
LINE
8
BLACK
6
CONTINUOUS
10
107.2999999999999972
20
-88.0125000000000028
11
107.280865999999989
21
-88.0086939999999913
0
LINE
8
BLACK
6
CONTINUOUS
10
107.280865999999989
20
-88.0086939999999913
11
107.2538059999999973
21
-87.9816339999999997
0
LINE
8
BLACK
6
CONTINUOUS
10
107.2538059999999973
20
-87.9816339999999997
11
107.25
21
-87.9624999999999915
0
LINE
8
BLACK
6
CONTINUOUS
10
107.25
20
-87.9624999999999915
11
107.25
21
-73.9624999999999915
0
LINE
8
BLACK
6
CONTINUOUS
10
107.25
20
-73.9624999999999915
11
107.2538059999999973
21
-73.9433659999999975
0
LINE
8
BLACK
6
CONTINUOUS
10
107.2538059999999973
20
-73.9433659999999975
11
107.280865999999989
21
-73.9163059999999916
0
LINE
8
BLACK
6
CONTINUOUS
10
107.280865999999989
20
-73.9163059999999916
11
107.2999999999999972
21
-73.9124999999999943
0
LINE
8
BLACK
6
CONTINUOUS
10
107.2999999999999972
20
-73.9124999999999943
11
121.2999999999999972
21
-73.9124999999999943
0
LINE
8
BLACK
6
CONTINUOUS
10
121.2999999999999972
20
-73.9124999999999943
11
121.3191339999999911
21
-73.9163059999999916
0
LINE
8
BLACK
6
CONTINUOUS
10
107.3499999999999943
20
-74.0125000000000028
11
107.3499999999999943
21
-87.9124999999999943
0
LINE
8
BLACK
6
CONTINUOUS
10
107.3499999999999943
20
-87.9124999999999943
11
121.25
21
-87.9124999999999943
0
LINE
8
BLACK
6
CONTINUOUS
10
121.25
20
-87.9124999999999943
11
121.25
21
-74.0125000000000028
0
LINE
8
BLACK
6
CONTINUOUS
10
121.25
20
-74.0125000000000028
11
107.3499999999999943
21
-74.0125000000000028
0
LINE
8
BLACK
6
CONTINUOUS
10
140.3691340000000025
20
-73.9163059999999916
11
140.39619399999998
21
-73.9433659999999975
0
LINE
8
BLACK
6
CONTINUOUS
10
140.39619399999998
20
-73.9433659999999975
11
140.4000000000000057
21
-73.9624999999999915
0
LINE
8
BLACK
6
CONTINUOUS
10
140.4000000000000057
20
-73.9624999999999915
11
140.4000000000000057
21
-87.9624999999999915
0
LINE
8
BLACK
6
CONTINUOUS
10
140.4000000000000057
20
-87.9624999999999915
11
140.39619399999998
21
-87.9816339999999997
0
LINE
8
BLACK
6
CONTINUOUS
10
140.39619399999998
20
-87.9816339999999997
11
140.3691340000000025
21
-88.0086939999999913
0
LINE
8
BLACK
6
CONTINUOUS
10
140.3691340000000025
20
-88.0086939999999913
11
140.3499999999999943
21
-88.0125000000000028
0
LINE
8
BLACK
6
CONTINUOUS
10
140.3499999999999943
20
-88.0125000000000028
11
126.3499999999999943
21
-88.0125000000000028
0
LINE
8
BLACK
6
CONTINUOUS
10
126.3499999999999943
20
-88.0125000000000028
11
126.3308660000000003
21
-88.0086939999999913
0
LINE
8
BLACK
6
CONTINUOUS
10
126.3308660000000003
20
-88.0086939999999913
11
126.3038059999999945
21
-87.9816339999999997
0
LINE
8
BLACK
6
CONTINUOUS
10
126.3038059999999945
20
-87.9816339999999997
11
126.2999999999999972
21
-87.9624999999999915
0
LINE
8
BLACK
6
CONTINUOUS
10
126.2999999999999972
20
-87.9624999999999915
11
126.2999999999999972
21
-73.9624999999999915
0
LINE
8
BLACK
6
CONTINUOUS
10
126.2999999999999972
20
-73.9624999999999915
11
126.3038059999999945
21
-73.9433659999999975
0
LINE
8
BLACK
6
CONTINUOUS
10
126.3038059999999945
20
-73.9433659999999975
11
126.3308660000000003
21
-73.9163059999999916
0
LINE
8
BLACK
6
CONTINUOUS
10
126.3308660000000003
20
-73.9163059999999916
11
126.3499999999999943
21
-73.9124999999999943
0
LINE
8
BLACK
6
CONTINUOUS
10
126.3499999999999943
20
-73.9124999999999943
11
140.3499999999999943
21
-73.9124999999999943
0
LINE
8
BLACK
6
CONTINUOUS
10
140.3499999999999943
20
-73.9124999999999943
11
140.3691340000000025
21
-73.9163059999999916
0
LINE
8
BLACK
6
CONTINUOUS
10
126.3999999999999915
20
-74.0125000000000028
11
126.3999999999999915
21
-87.9124999999999943
0
LINE
8
BLACK
6
CONTINUOUS
10
126.3999999999999915
20
-87.9124999999999943
11
140.2999999999999829
21
-87.9124999999999943
0
LINE
8
BLACK
6
CONTINUOUS
10
140.2999999999999829
20
-87.9124999999999943
11
140.2999999999999829
21
-74.0125000000000028
0
LINE
8
BLACK
6
CONTINUOUS
10
140.2999999999999829
20
-74.0125000000000028
11
126.3999999999999915
21
-74.0125000000000028
0
LINE
8
BLACK
6
CONTINUOUS
10
83.2191339999999968
20
-69.153806000000003
11
83.2461940000000027
21
-69.1808659999999946
0
LINE
8
BLACK
6
CONTINUOUS
10
83.2461940000000027
20
-69.1808659999999946
11
83.25
21
-69.2000000000000028
0
LINE
8
BLACK
6
CONTINUOUS
10
83.25
20
-69.2000000000000028
11
83.25
21
-83.2000000000000028
0
LINE
8
BLACK
6
CONTINUOUS
10
83.25
20
-83.2000000000000028
11
83.2461940000000027
21
-83.2191339999999968
0
LINE
8
BLACK
6
CONTINUOUS
10
83.2461940000000027
20
-83.2191339999999968
11
83.2191339999999968
21
-83.2461940000000027
0
LINE
8
BLACK
6
CONTINUOUS
10
83.2191339999999968
20
-83.2461940000000027
11
83.2000000000000028
21
-83.25
0
LINE
8
BLACK
6
CONTINUOUS
10
83.2000000000000028
20
-83.25
11
69.2000000000000028
21
-83.25
0
LINE
8
BLACK
6
CONTINUOUS
10
69.2000000000000028
20
-83.25
11
69.1808659999999946
21
-83.2461940000000027
0
LINE
8
BLACK
6
CONTINUOUS
10
69.1808659999999946
20
-83.2461940000000027
11
69.153806000000003
21
-83.2191339999999968
0
LINE
8
BLACK
6
CONTINUOUS
10
69.153806000000003
20
-83.2191339999999968
11
69.1499999999999915
21
-83.2000000000000028
0
LINE
8
BLACK
6
CONTINUOUS
10
69.1499999999999915
20
-83.2000000000000028
11
69.1499999999999915
21
-69.2000000000000028
0
LINE
8
BLACK
6
CONTINUOUS
10
69.1499999999999915
20
-69.2000000000000028
11
69.153806000000003
21
-69.1808659999999946
0
LINE
8
BLACK
6
CONTINUOUS
10
69.153806000000003
20
-69.1808659999999946
11
69.1808659999999946
21
-69.153806000000003
0
LINE
8
BLACK
6
CONTINUOUS
10
69.1808659999999946
20
-69.153806000000003
11
69.2000000000000028
21
-69.1499999999999915
0
LINE
8
BLACK
6
CONTINUOUS
10
69.2000000000000028
20
-69.1499999999999915
11
83.2000000000000028
21
-69.1499999999999915
0
LINE
8
BLACK
6
CONTINUOUS
10
83.2000000000000028
20
-69.1499999999999915
11
83.2191339999999968
21
-69.153806000000003
0
LINE
8
BLACK
6
CONTINUOUS
10
69.25
20
-69.25
11
69.25
21
-83.1499999999999915
0
LINE
8
BLACK
6
CONTINUOUS
10
69.25
20
-83.1499999999999915
11
83.1499999999999915
21
-83.1499999999999915
0
LINE
8
BLACK
6
CONTINUOUS
10
83.1499999999999915
20
-83.1499999999999915
11
83.1499999999999915
21
-69.25
0
LINE
8
BLACK
6
CONTINUOUS
10
83.1499999999999915
20
-69.25
11
69.25
21
-69.25
0
LINE
8
BLACK
6
CONTINUOUS
10
102.269133999999994
20
-69.153806000000003
11
102.2961939999999998
21
-69.1808659999999946
0
LINE
8
BLACK
6
CONTINUOUS
10
102.2961939999999998
20
-69.1808659999999946
11
102.2999999999999972
21
-69.2000000000000028
0
LINE
8
BLACK
6
CONTINUOUS
10
102.2999999999999972
20
-69.2000000000000028
11
102.2999999999999972
21
-83.2000000000000028
0
LINE
8
BLACK
6
CONTINUOUS
10
102.2999999999999972
20
-83.2000000000000028
11
102.2961939999999998
21
-83.2191339999999968
0
LINE
8
BLACK
6
CONTINUOUS
10
102.2961939999999998
20
-83.2191339999999968
11
102.269133999999994
21
-83.2461940000000027
0
LINE
8
BLACK
6
CONTINUOUS
10
102.269133999999994
20
-83.2461940000000027
11
102.25
21
-83.25
0
LINE
8
BLACK
6
CONTINUOUS
10
102.25
20
-83.25
11
88.25
21
-83.25
0
LINE
8
BLACK
6
CONTINUOUS
10
88.25
20
-83.25
11
88.2308659999999918
21
-83.2461940000000027
0
LINE
8
BLACK
6
CONTINUOUS
10
88.2308659999999918
20
-83.2461940000000027
11
88.2038060000000002
21
-83.2191339999999968
0
LINE
8
BLACK
6
CONTINUOUS
10
88.2038060000000002
20
-83.2191339999999968
11
88.2000000000000028
21
-83.2000000000000028
0
LINE
8
BLACK
6
CONTINUOUS
10
88.2000000000000028
20
-83.2000000000000028
11
88.2000000000000028
21
-69.2000000000000028
0
LINE
8
BLACK
6
CONTINUOUS
10
88.2000000000000028
20
-69.2000000000000028
11
88.2038060000000002
21
-69.1808659999999946
0
LINE
8
BLACK
6
CONTINUOUS
10
88.2038060000000002
20
-69.1808659999999946
11
88.2308659999999918
21
-69.153806000000003
0
LINE
8
BLACK
6
CONTINUOUS
10
88.2308659999999918
20
-69.153806000000003
11
88.25
21
-69.1499999999999915
0
LINE
8
BLACK
6
CONTINUOUS
10
88.25
20
-69.1499999999999915
11
102.25
21
-69.1499999999999915
0
LINE
8
BLACK
6
CONTINUOUS
10
102.25
20
-69.1499999999999915
11
102.269133999999994
21
-69.153806000000003
0
LINE
8
BLACK
6
CONTINUOUS
10
88.2999999999999972
20
-69.25
11
88.2999999999999972
21
-83.1499999999999915
0
LINE
8
BLACK
6
CONTINUOUS
10
88.2999999999999972
20
-83.1499999999999915
11
102.1999999999999886
21
-83.1499999999999915
0
LINE
8
BLACK
6
CONTINUOUS
10
102.1999999999999886
20
-83.1499999999999915
11
102.1999999999999886
21
-69.25
0
LINE
8
BLACK
6
CONTINUOUS
10
102.1999999999999886
20
-69.25
11
88.2999999999999972
21
-69.25
0
LINE
8
BLACK
6
CONTINUOUS
10
45.1191339999999954
20
-59.6288059999999973
11
45.1461940000000013
21
-59.6558659999999961
0
LINE
8
BLACK
6
CONTINUOUS
10
45.1461940000000013
20
-59.6558659999999961
11
45.1499999999999986
21
-59.6749999999999972
0
LINE
8
BLACK
6
CONTINUOUS
10
45.1499999999999986
20
-59.6749999999999972
11
45.1499999999999986
21
-73.6749999999999972
0
LINE
8
BLACK
6
CONTINUOUS
10
45.1499999999999986
20
-73.6749999999999972
11
45.1461940000000013
21
-73.6941339999999911
0
LINE
8
BLACK
6
CONTINUOUS
10
45.1461940000000013
20
-73.6941339999999911
11
45.1191339999999954
21
-73.721193999999997
0
LINE
8
BLACK
6
CONTINUOUS
10
45.1191339999999954
20
-73.721193999999997
11
45.1000000000000014
21
-73.7249999999999943
0
LINE
8
BLACK
6
CONTINUOUS
10
45.1000000000000014
20
-73.7249999999999943
11
31.0999999999999979
21
-73.7249999999999943
0
LINE
8
BLACK
6
CONTINUOUS
10
31.0999999999999979
20
-73.7249999999999943
11
31.0808660000000003
21
-73.721193999999997
0
LINE
8
BLACK
6
CONTINUOUS
10
31.0808660000000003
20
-73.721193999999997
11
31.053805999999998
21
-73.6941339999999911
0
LINE
8
BLACK
6
CONTINUOUS
10
31.053805999999998
20
-73.6941339999999911
11
31.0499999999999972
21
-73.6749999999999972
0
LINE
8
BLACK
6
CONTINUOUS
10
31.0499999999999972
20
-73.6749999999999972
11
31.0499999999999972
21
-59.6749999999999972
0
LINE
8
BLACK
6
CONTINUOUS
10
31.0499999999999972
20
-59.6749999999999972
11
31.053805999999998
21
-59.6558659999999961
0
LINE
8
BLACK
6
CONTINUOUS
10
31.053805999999998
20
-59.6558659999999961
11
31.0808660000000003
21
-59.6288059999999973
0
LINE
8
BLACK
6
CONTINUOUS
10
31.0808660000000003
20
-59.6288059999999973
11
31.0999999999999979
21
-59.625
0
LINE
8
BLACK
6
CONTINUOUS
10
31.0999999999999979
20
-59.625
11
45.1000000000000014
21
-59.625
0
LINE
8
BLACK
6
CONTINUOUS
10
45.1000000000000014
20
-59.625
11
45.1191339999999954
21
-59.6288059999999973
0
LINE
8
BLACK
6
CONTINUOUS
10
31.1499999999999986
20
-59.7249999999999943
11
31.1499999999999986
21
-73.625
0
LINE
8
BLACK
6
CONTINUOUS
10
31.1499999999999986
20
-73.625
11
45.0499999999999972
21
-73.625
0
LINE
8
BLACK
6
CONTINUOUS
10
45.0499999999999972
20
-73.625
11
45.0499999999999972
21
-59.7249999999999943
0
LINE
8
BLACK
6
CONTINUOUS
10
45.0499999999999972
20
-59.7249999999999943
11
31.1499999999999986
21
-59.7249999999999943
0
LINE
8
BLACK
6
CONTINUOUS
10
64.1691339999999997
20
-59.6288059999999973
11
64.1961939999999913
21
-59.6558659999999961
0
LINE
8
BLACK
6
CONTINUOUS
10
64.1961939999999913
20
-59.6558659999999961
11
64.2000000000000028
21
-59.6749999999999972
0
LINE
8
BLACK
6
CONTINUOUS
10
64.2000000000000028
20
-59.6749999999999972
11
64.2000000000000028
21
-73.6749999999999972
0
LINE
8
BLACK
6
CONTINUOUS
10
64.2000000000000028
20
-73.6749999999999972
11
64.1961939999999913
21
-73.6941339999999911
0
LINE
8
BLACK
6
CONTINUOUS
10
64.1961939999999913
20
-73.6941339999999911
11
64.1691339999999997
21
-73.721193999999997
0
LINE
8
BLACK
6
CONTINUOUS
10
64.1691339999999997
20
-73.721193999999997
11
64.1499999999999915
21
-73.7249999999999943
0
LINE
8
BLACK
6
CONTINUOUS
10
64.1499999999999915
20
-73.7249999999999943
11
50.1499999999999986
21
-73.7249999999999943
0
LINE
8
BLACK
6
CONTINUOUS
10
50.1499999999999986
20
-73.7249999999999943
11
50.1308659999999975
21
-73.721193999999997
0
LINE
8
BLACK
6
CONTINUOUS
10
50.1308659999999975
20
-73.721193999999997
11
50.1038059999999987
21
-73.6941339999999911
0
LINE
8
BLACK
6
CONTINUOUS
10
50.1038059999999987
20
-73.6941339999999911
11
50.0999999999999943
21
-73.6749999999999972
0
LINE
8
BLACK
6
CONTINUOUS
10
50.0999999999999943
20
-73.6749999999999972
11
50.0999999999999943
21
-59.6749999999999972
0
LINE
8
BLACK
6
CONTINUOUS
10
50.0999999999999943
20
-59.6749999999999972
11
50.1038059999999987
21
-59.6558659999999961
0
LINE
8
BLACK
6
CONTINUOUS
10
50.1038059999999987
20
-59.6558659999999961
11
50.1308659999999975
21
-59.6288059999999973
0
LINE
8
BLACK
6
CONTINUOUS
10
50.1308659999999975
20
-59.6288059999999973
11
50.1499999999999986
21
-59.625
0
LINE
8
BLACK
6
CONTINUOUS
10
50.1499999999999986
20
-59.625
11
64.1499999999999915
21
-59.625
0
LINE
8
BLACK
6
CONTINUOUS
10
64.1499999999999915
20
-59.625
11
64.1691339999999997
21
-59.6288059999999973
0
LINE
8
BLACK
6
CONTINUOUS
10
50.1999999999999957
20
-59.7249999999999943
11
50.1999999999999957
21
-73.625
0
LINE
8
BLACK
6
CONTINUOUS
10
50.1999999999999957
20
-73.625
11
64.0999999999999943
21
-73.625
0
LINE
8
BLACK
6
CONTINUOUS
10
64.0999999999999943
20
-73.625
11
64.0999999999999943
21
-59.7249999999999943
0
LINE
8
BLACK
6
CONTINUOUS
10
64.0999999999999943
20
-59.7249999999999943
11
50.1999999999999957
21
-59.7249999999999943
0
LINE
8
BLACK
6
CONTINUOUS
10
121.3191339999999911
20
-54.8663059999999945
11
121.346193999999997
21
-54.8933660000000003
0
LINE
8
BLACK
6
CONTINUOUS
10
121.346193999999997
20
-54.8933660000000003
11
121.3499999999999943
21
-54.9124999999999943
0
LINE
8
BLACK
6
CONTINUOUS
10
121.3499999999999943
20
-54.9124999999999943
11
121.3499999999999943
21
-68.9124999999999943
0
LINE
8
BLACK
6
CONTINUOUS
10
121.3499999999999943
20
-68.9124999999999943
11
121.346193999999997
21
-68.9316340000000025
0
LINE
8
BLACK
6
CONTINUOUS
10
121.346193999999997
20
-68.9316340000000025
11
121.3191339999999911
21
-68.9586939999999942
0
LINE
8
BLACK
6
CONTINUOUS
10
121.3191339999999911
20
-68.9586939999999942
11
121.2999999999999972
21
-68.9624999999999915
0
LINE
8
BLACK
6
CONTINUOUS
10
121.2999999999999972
20
-68.9624999999999915
11
107.2999999999999972
21
-68.9624999999999915
0
LINE
8
BLACK
6
CONTINUOUS
10
107.2999999999999972
20
-68.9624999999999915
11
107.280865999999989
21
-68.9586939999999942
0
LINE
8
BLACK
6
CONTINUOUS
10
107.280865999999989
20
-68.9586939999999942
11
107.2538059999999973
21
-68.9316340000000025
0
LINE
8
BLACK
6
CONTINUOUS
10
107.2538059999999973
20
-68.9316340000000025
11
107.25
21
-68.9124999999999943
0
LINE
8
BLACK
6
CONTINUOUS
10
107.25
20
-68.9124999999999943
11
107.25
21
-54.9124999999999943
0
LINE
8
BLACK
6
CONTINUOUS
10
107.25
20
-54.9124999999999943
11
107.2538059999999973
21
-54.8933660000000003
0
LINE
8
BLACK
6
CONTINUOUS
10
107.2538059999999973
20
-54.8933660000000003
11
107.280865999999989
21
-54.8663059999999945
0
LINE
8
BLACK
6
CONTINUOUS
10
107.280865999999989
20
-54.8663059999999945
11
107.2999999999999972
21
-54.8624999999999972
0
LINE
8
BLACK
6
CONTINUOUS
10
107.2999999999999972
20
-54.8624999999999972
11
121.2999999999999972
21
-54.8624999999999972
0
LINE
8
BLACK
6
CONTINUOUS
10
121.2999999999999972
20
-54.8624999999999972
11
121.3191339999999911
21
-54.8663059999999945
0
LINE
8
BLACK
6
CONTINUOUS
10
107.3499999999999943
20
-54.9624999999999986
11
107.3499999999999943
21
-68.8624999999999972
0
LINE
8
BLACK
6
CONTINUOUS
10
107.3499999999999943
20
-68.8624999999999972
11
121.25
21
-68.8624999999999972
0
LINE
8
BLACK
6
CONTINUOUS
10
121.25
20
-68.8624999999999972
11
121.25
21
-54.9624999999999986
0
LINE
8
BLACK
6
CONTINUOUS
10
121.25
20
-54.9624999999999986
11
107.3499999999999943
21
-54.9624999999999986
0
LINE
8
BLACK
6
CONTINUOUS
10
140.3691340000000025
20
-54.8663059999999945
11
140.39619399999998
21
-54.8933660000000003
0
LINE
8
BLACK
6
CONTINUOUS
10
140.39619399999998
20
-54.8933660000000003
11
140.4000000000000057
21
-54.9124999999999943
0
LINE
8
BLACK
6
CONTINUOUS
10
140.4000000000000057
20
-54.9124999999999943
11
140.4000000000000057
21
-68.9124999999999943
0
LINE
8
BLACK
6
CONTINUOUS
10
140.4000000000000057
20
-68.9124999999999943
11
140.39619399999998
21
-68.9316340000000025
0
LINE
8
BLACK
6
CONTINUOUS
10
140.39619399999998
20
-68.9316340000000025
11
140.3691340000000025
21
-68.9586939999999942
0
LINE
8
BLACK
6
CONTINUOUS
10
140.3691340000000025
20
-68.9586939999999942
11
140.3499999999999943
21
-68.9624999999999915
0
LINE
8
BLACK
6
CONTINUOUS
10
140.3499999999999943
20
-68.9624999999999915
11
126.3499999999999943
21
-68.9624999999999915
0
LINE
8
BLACK
6
CONTINUOUS
10
126.3499999999999943
20
-68.9624999999999915
11
126.3308660000000003
21
-68.9586939999999942
0
LINE
8
BLACK
6
CONTINUOUS
10
126.3308660000000003
20
-68.9586939999999942
11
126.3038059999999945
21
-68.9316340000000025
0
LINE
8
BLACK
6
CONTINUOUS
10
126.3038059999999945
20
-68.9316340000000025
11
126.2999999999999972
21
-68.9124999999999943
0
LINE
8
BLACK
6
CONTINUOUS
10
126.2999999999999972
20
-68.9124999999999943
11
126.2999999999999972
21
-54.9124999999999943
0
LINE
8
BLACK
6
CONTINUOUS
10
126.2999999999999972
20
-54.9124999999999943
11
126.3038059999999945
21
-54.8933660000000003
0
LINE
8
BLACK
6
CONTINUOUS
10
126.3038059999999945
20
-54.8933660000000003
11
126.3308660000000003
21
-54.8663059999999945
0
LINE
8
BLACK
6
CONTINUOUS
10
126.3308660000000003
20
-54.8663059999999945
11
126.3499999999999943
21
-54.8624999999999972
0
LINE
8
BLACK
6
CONTINUOUS
10
126.3499999999999943
20
-54.8624999999999972
11
140.3499999999999943
21
-54.8624999999999972
0
LINE
8
BLACK
6
CONTINUOUS
10
140.3499999999999943
20
-54.8624999999999972
11
140.3691340000000025
21
-54.8663059999999945
0
LINE
8
BLACK
6
CONTINUOUS
10
126.3999999999999915
20
-54.9624999999999986
11
126.3999999999999915
21
-68.8624999999999972
0
LINE
8
BLACK
6
CONTINUOUS
10
126.3999999999999915
20
-68.8624999999999972
11
140.2999999999999829
21
-68.8624999999999972
0
LINE
8
BLACK
6
CONTINUOUS
10
140.2999999999999829
20
-68.8624999999999972
11
140.2999999999999829
21
-54.9624999999999986
0
LINE
8
BLACK
6
CONTINUOUS
10
140.2999999999999829
20
-54.9624999999999986
11
126.3999999999999915
21
-54.9624999999999986
0
LINE
8
BLACK
6
CONTINUOUS
10
83.2191339999999968
20
-50.1038059999999987
11
83.2461940000000027
21
-50.1308659999999975
0
LINE
8
BLACK
6
CONTINUOUS
10
83.2461940000000027
20
-50.1308659999999975
11
83.25
21
-50.1499999999999986
0
LINE
8
BLACK
6
CONTINUOUS
10
83.25
20
-50.1499999999999986
11
83.25
21
-64.1499999999999915
0
LINE
8
BLACK
6
CONTINUOUS
10
83.25
20
-64.1499999999999915
11
83.2461940000000027
21
-64.1691339999999997
0
LINE
8
BLACK
6
CONTINUOUS
10
83.2461940000000027
20
-64.1691339999999997
11
83.2191339999999968
21
-64.1961939999999913
0
LINE
8
BLACK
6
CONTINUOUS
10
83.2191339999999968
20
-64.1961939999999913
11
83.2000000000000028
21
-64.2000000000000028
0
LINE
8
BLACK
6
CONTINUOUS
10
83.2000000000000028
20
-64.2000000000000028
11
69.2000000000000028
21
-64.2000000000000028
0
LINE
8
BLACK
6
CONTINUOUS
10
69.2000000000000028
20
-64.2000000000000028
11
69.1808659999999946
21
-64.1961939999999913
0
LINE
8
BLACK
6
CONTINUOUS
10
69.1808659999999946
20
-64.1961939999999913
11
69.153806000000003
21
-64.1691339999999997
0
LINE
8
BLACK
6
CONTINUOUS
10
69.153806000000003
20
-64.1691339999999997
11
69.1499999999999915
21
-64.1499999999999915
0
LINE
8
BLACK
6
CONTINUOUS
10
69.1499999999999915
20
-64.1499999999999915
11
69.1499999999999915
21
-50.1499999999999986
0
LINE
8
BLACK
6
CONTINUOUS
10
69.1499999999999915
20
-50.1499999999999986
11
69.153806000000003
21
-50.1308659999999975
0
LINE
8
BLACK
6
CONTINUOUS
10
69.153806000000003
20
-50.1308659999999975
11
69.1808659999999946
21
-50.1038059999999987
0
LINE
8
BLACK
6
CONTINUOUS
10
69.1808659999999946
20
-50.1038059999999987
11
69.2000000000000028
21
-50.0999999999999943
0
LINE
8
BLACK
6
CONTINUOUS
10
69.2000000000000028
20
-50.0999999999999943
11
83.2000000000000028
21
-50.0999999999999943
0
LINE
8
BLACK
6
CONTINUOUS
10
83.2000000000000028
20
-50.0999999999999943
11
83.2191339999999968
21
-50.1038059999999987
0
LINE
8
BLACK
6
CONTINUOUS
10
69.25
20
-50.1999999999999957
11
69.25
21
-64.0999999999999943
0
LINE
8
BLACK
6
CONTINUOUS
10
69.25
20
-64.0999999999999943
11
83.1499999999999915
21
-64.0999999999999943
0
LINE
8
BLACK
6
CONTINUOUS
10
83.1499999999999915
20
-64.0999999999999943
11
83.1499999999999915
21
-50.1999999999999957
0
LINE
8
BLACK
6
CONTINUOUS
10
83.1499999999999915
20
-50.1999999999999957
11
69.25
21
-50.1999999999999957
0
LINE
8
BLACK
6
CONTINUOUS
10
102.269133999999994
20
-50.1038059999999987
11
102.2961939999999998
21
-50.1308659999999975
0
LINE
8
BLACK
6
CONTINUOUS
10
102.2961939999999998
20
-50.1308659999999975
11
102.2999999999999972
21
-50.1499999999999986
0
LINE
8
BLACK
6
CONTINUOUS
10
102.2999999999999972
20
-50.1499999999999986
11
102.2999999999999972
21
-64.1499999999999915
0
LINE
8
BLACK
6
CONTINUOUS
10
102.2999999999999972
20
-64.1499999999999915
11
102.2961939999999998
21
-64.1691339999999997
0
LINE
8
BLACK
6
CONTINUOUS
10
102.2961939999999998
20
-64.1691339999999997
11
102.269133999999994
21
-64.1961939999999913
0
LINE
8
BLACK
6
CONTINUOUS
10
102.269133999999994
20
-64.1961939999999913
11
102.25
21
-64.2000000000000028
0
LINE
8
BLACK
6
CONTINUOUS
10
102.25
20
-64.2000000000000028
11
88.25
21
-64.2000000000000028
0
LINE
8
BLACK
6
CONTINUOUS
10
88.25
20
-64.2000000000000028
11
88.2308659999999918
21
-64.1961939999999913
0
LINE
8
BLACK
6
CONTINUOUS
10
88.2308659999999918
20
-64.1961939999999913
11
88.2038060000000002
21
-64.1691339999999997
0
LINE
8
BLACK
6
CONTINUOUS
10
88.2038060000000002
20
-64.1691339999999997
11
88.2000000000000028
21
-64.1499999999999915
0
LINE
8
BLACK
6
CONTINUOUS
10
88.2000000000000028
20
-64.1499999999999915
11
88.2000000000000028
21
-50.1499999999999986
0
LINE
8
BLACK
6
CONTINUOUS
10
88.2000000000000028
20
-50.1499999999999986
11
88.2038060000000002
21
-50.1308659999999975
0
LINE
8
BLACK
6
CONTINUOUS
10
88.2038060000000002
20
-50.1308659999999975
11
88.2308659999999918
21
-50.1038059999999987
0
LINE
8
BLACK
6
CONTINUOUS
10
88.2308659999999918
20
-50.1038059999999987
11
88.25
21
-50.0999999999999943
0
LINE
8
BLACK
6
CONTINUOUS
10
88.25
20
-50.0999999999999943
11
102.25
21
-50.0999999999999943
0
LINE
8
BLACK
6
CONTINUOUS
10
102.25
20
-50.0999999999999943
11
102.269133999999994
21
-50.1038059999999987
0
LINE
8
BLACK
6
CONTINUOUS
10
88.2999999999999972
20
-50.1999999999999957
11
88.2999999999999972
21
-64.0999999999999943
0
LINE
8
BLACK
6
CONTINUOUS
10
88.2999999999999972
20
-64.0999999999999943
11
102.1999999999999886
21
-64.0999999999999943
0
LINE
8
BLACK
6
CONTINUOUS
10
102.1999999999999886
20
-64.0999999999999943
11
102.1999999999999886
21
-50.1999999999999957
0
LINE
8
BLACK
6
CONTINUOUS
10
102.1999999999999886
20
-50.1999999999999957
11
88.2999999999999972
21
-50.1999999999999957
0
LINE
8
BLACK
6
CONTINUOUS
10
45.1191339999999954
20
-40.5788060000000002
11
45.1461940000000013
21
-40.6058659999999989
0
LINE
8
BLACK
6
CONTINUOUS
10
45.1461940000000013
20
-40.6058659999999989
11
45.1499999999999986
21
-40.625
0
LINE
8
BLACK
6
CONTINUOUS
10
45.1499999999999986
20
-40.625
11
45.1499999999999986
21
-54.625
0
LINE
8
BLACK
6
CONTINUOUS
10
45.1499999999999986
20
-54.625
11
45.1461940000000013
21
-54.644133999999994
0
LINE
8
BLACK
6
CONTINUOUS
10
45.1461940000000013
20
-54.644133999999994
11
45.1191339999999954
21
-54.6711939999999998
0
LINE
8
BLACK
6
CONTINUOUS
10
45.1191339999999954
20
-54.6711939999999998
11
45.1000000000000014
21
-54.6749999999999972
0
LINE
8
BLACK
6
CONTINUOUS
10
45.1000000000000014
20
-54.6749999999999972
11
31.0999999999999979
21
-54.6749999999999972
0
LINE
8
BLACK
6
CONTINUOUS
10
31.0999999999999979
20
-54.6749999999999972
11
31.0808660000000003
21
-54.6711939999999998
0
LINE
8
BLACK
6
CONTINUOUS
10
31.0808660000000003
20
-54.6711939999999998
11
31.053805999999998
21
-54.644133999999994
0
LINE
8
BLACK
6
CONTINUOUS
10
31.053805999999998
20
-54.644133999999994
11
31.0499999999999972
21
-54.625
0
LINE
8
BLACK
6
CONTINUOUS
10
31.0499999999999972
20
-54.625
11
31.0499999999999972
21
-40.625
0
LINE
8
BLACK
6
CONTINUOUS
10
31.0499999999999972
20
-40.625
11
31.053805999999998
21
-40.6058659999999989
0
LINE
8
BLACK
6
CONTINUOUS
10
31.053805999999998
20
-40.6058659999999989
11
31.0808660000000003
21
-40.5788060000000002
0
LINE
8
BLACK
6
CONTINUOUS
10
31.0808660000000003
20
-40.5788060000000002
11
31.0999999999999979
21
-40.5749999999999957
0
LINE
8
BLACK
6
CONTINUOUS
10
31.0999999999999979
20
-40.5749999999999957
11
45.1000000000000014
21
-40.5749999999999957
0
LINE
8
BLACK
6
CONTINUOUS
10
45.1000000000000014
20
-40.5749999999999957
11
45.1191339999999954
21
-40.5788060000000002
0
LINE
8
BLACK
6
CONTINUOUS
10
31.1499999999999986
20
-40.6749999999999972
11
31.1499999999999986
21
-54.5749999999999957
0
LINE
8
BLACK
6
CONTINUOUS
10
31.1499999999999986
20
-54.5749999999999957
11
45.0499999999999972
21
-54.5749999999999957
0
LINE
8
BLACK
6
CONTINUOUS
10
45.0499999999999972
20
-54.5749999999999957
11
45.0499999999999972
21
-40.6749999999999972
0
LINE
8
BLACK
6
CONTINUOUS
10
45.0499999999999972
20
-40.6749999999999972
11
31.1499999999999986
21
-40.6749999999999972
0
LINE
8
BLACK
6
CONTINUOUS
10
64.1691339999999997
20
-40.5788060000000002
11
64.1961939999999913
21
-40.6058659999999989
0
LINE
8
BLACK
6
CONTINUOUS
10
64.1961939999999913
20
-40.6058659999999989
11
64.2000000000000028
21
-40.625
0
LINE
8
BLACK
6
CONTINUOUS
10
64.2000000000000028
20
-40.625
11
64.2000000000000028
21
-54.625
0
LINE
8
BLACK
6
CONTINUOUS
10
64.2000000000000028
20
-54.625
11
64.1961939999999913
21
-54.644133999999994
0
LINE
8
BLACK
6
CONTINUOUS
10
64.1961939999999913
20
-54.644133999999994
11
64.1691339999999997
21
-54.6711939999999998
0
LINE
8
BLACK
6
CONTINUOUS
10
64.1691339999999997
20
-54.6711939999999998
11
64.1499999999999915
21
-54.6749999999999972
0
LINE
8
BLACK
6
CONTINUOUS
10
64.1499999999999915
20
-54.6749999999999972
11
50.1499999999999986
21
-54.6749999999999972
0
LINE
8
BLACK
6
CONTINUOUS
10
50.1499999999999986
20
-54.6749999999999972
11
50.1308659999999975
21
-54.6711939999999998
0
LINE
8
BLACK
6
CONTINUOUS
10
50.1308659999999975
20
-54.6711939999999998
11
50.1038059999999987
21
-54.644133999999994
0
LINE
8
BLACK
6
CONTINUOUS
10
50.1038059999999987
20
-54.644133999999994
11
50.0999999999999943
21
-54.625
0
LINE
8
BLACK
6
CONTINUOUS
10
50.0999999999999943
20
-54.625
11
50.0999999999999943
21
-40.625
0
LINE
8
BLACK
6
CONTINUOUS
10
50.0999999999999943
20
-40.625
11
50.1038059999999987
21
-40.6058659999999989
0
LINE
8
BLACK
6
CONTINUOUS
10
50.1038059999999987
20
-40.6058659999999989
11
50.1308659999999975
21
-40.5788060000000002
0
LINE
8
BLACK
6
CONTINUOUS
10
50.1308659999999975
20
-40.5788060000000002
11
50.1499999999999986
21
-40.5749999999999957
0
LINE
8
BLACK
6
CONTINUOUS
10
50.1499999999999986
20
-40.5749999999999957
11
64.1499999999999915
21
-40.5749999999999957
0
LINE
8
BLACK
6
CONTINUOUS
10
64.1499999999999915
20
-40.5749999999999957
11
64.1691339999999997
21
-40.5788060000000002
0
LINE
8
BLACK
6
CONTINUOUS
10
50.1999999999999957
20
-40.6749999999999972
11
50.1999999999999957
21
-54.5749999999999957
0
LINE
8
BLACK
6
CONTINUOUS
10
50.1999999999999957
20
-54.5749999999999957
11
64.0999999999999943
21
-54.5749999999999957
0
LINE
8
BLACK
6
CONTINUOUS
10
64.0999999999999943
20
-54.5749999999999957
11
64.0999999999999943
21
-40.6749999999999972
0
LINE
8
BLACK
6
CONTINUOUS
10
64.0999999999999943
20
-40.6749999999999972
11
50.1999999999999957
21
-40.6749999999999972
0
LINE
8
BLACK
6
CONTINUOUS
10
121.3191339999999911
20
-35.8163059999999973
11
121.346193999999997
21
-35.8433659999999961
0
LINE
8
BLACK
6
CONTINUOUS
10
121.346193999999997
20
-35.8433659999999961
11
121.3499999999999943
21
-35.8624999999999972
0
LINE
8
BLACK
6
CONTINUOUS
10
121.3499999999999943
20
-35.8624999999999972
11
121.3499999999999943
21
-49.8624999999999972
0
LINE
8
BLACK
6
CONTINUOUS
10
121.3499999999999943
20
-49.8624999999999972
11
121.346193999999997
21
-49.8816339999999983
0
LINE
8
BLACK
6
CONTINUOUS
10
121.346193999999997
20
-49.8816339999999983
11
121.3191339999999911
21
-49.908693999999997
0
LINE
8
BLACK
6
CONTINUOUS
10
121.3191339999999911
20
-49.908693999999997
11
121.2999999999999972
21
-49.9124999999999943
0
LINE
8
BLACK
6
CONTINUOUS
10
121.2999999999999972
20
-49.9124999999999943
11
107.2999999999999972
21
-49.9124999999999943
0
LINE
8
BLACK
6
CONTINUOUS
10
107.2999999999999972
20
-49.9124999999999943
11
107.280865999999989
21
-49.908693999999997
0
LINE
8
BLACK
6
CONTINUOUS
10
107.280865999999989
20
-49.908693999999997
11
107.2538059999999973
21
-49.8816339999999983
0
LINE
8
BLACK
6
CONTINUOUS
10
107.2538059999999973
20
-49.8816339999999983
11
107.25
21
-49.8624999999999972
0
LINE
8
BLACK
6
CONTINUOUS
10
107.25
20
-49.8624999999999972
11
107.25
21
-35.8624999999999972
0
LINE
8
BLACK
6
CONTINUOUS
10
107.25
20
-35.8624999999999972
11
107.2538059999999973
21
-35.8433659999999961
0
LINE
8
BLACK
6
CONTINUOUS
10
107.2538059999999973
20
-35.8433659999999961
11
107.280865999999989
21
-35.8163059999999973
0
LINE
8
BLACK
6
CONTINUOUS
10
107.280865999999989
20
-35.8163059999999973
11
107.2999999999999972
21
-35.8125
0
LINE
8
BLACK
6
CONTINUOUS
10
107.2999999999999972
20
-35.8125
11
121.2999999999999972
21
-35.8125
0
LINE
8
BLACK
6
CONTINUOUS
10
121.2999999999999972
20
-35.8125
11
121.3191339999999911
21
-35.8163059999999973
0
LINE
8
BLACK
6
CONTINUOUS
10
107.3499999999999943
20
-35.9125000000000014
11
107.3499999999999943
21
-49.8125
0
LINE
8
BLACK
6
CONTINUOUS
10
107.3499999999999943
20
-49.8125
11
121.25
21
-49.8125
0
LINE
8
BLACK
6
CONTINUOUS
10
121.25
20
-49.8125
11
121.25
21
-35.9125000000000014
0
LINE
8
BLACK
6
CONTINUOUS
10
121.25
20
-35.9125000000000014
11
107.3499999999999943
21
-35.9125000000000014
0
LINE
8
BLACK
6
CONTINUOUS
10
140.3691340000000025
20
-35.8163059999999973
11
140.39619399999998
21
-35.8433659999999961
0
LINE
8
BLACK
6
CONTINUOUS
10
140.39619399999998
20
-35.8433659999999961
11
140.4000000000000057
21
-35.8624999999999972
0
LINE
8
BLACK
6
CONTINUOUS
10
140.4000000000000057
20
-35.8624999999999972
11
140.4000000000000057
21
-49.8624999999999972
0
LINE
8
BLACK
6
CONTINUOUS
10
140.4000000000000057
20
-49.8624999999999972
11
140.39619399999998
21
-49.8816339999999983
0
LINE
8
BLACK
6
CONTINUOUS
10
140.39619399999998
20
-49.8816339999999983
11
140.3691340000000025
21
-49.908693999999997
0
LINE
8
BLACK
6
CONTINUOUS
10
140.3691340000000025
20
-49.908693999999997
11
140.3499999999999943
21
-49.9124999999999943
0
LINE
8
BLACK
6
CONTINUOUS
10
140.3499999999999943
20
-49.9124999999999943
11
126.3499999999999943
21
-49.9124999999999943
0
LINE
8
BLACK
6
CONTINUOUS
10
126.3499999999999943
20
-49.9124999999999943
11
126.3308660000000003
21
-49.908693999999997
0
LINE
8
BLACK
6
CONTINUOUS
10
126.3308660000000003
20
-49.908693999999997
11
126.3038059999999945
21
-49.8816339999999983
0
LINE
8
BLACK
6
CONTINUOUS
10
126.3038059999999945
20
-49.8816339999999983
11
126.2999999999999972
21
-49.8624999999999972
0
LINE
8
BLACK
6
CONTINUOUS
10
126.2999999999999972
20
-49.8624999999999972
11
126.2999999999999972
21
-35.8624999999999972
0
LINE
8
BLACK
6
CONTINUOUS
10
126.2999999999999972
20
-35.8624999999999972
11
126.3038059999999945
21
-35.8433659999999961
0
LINE
8
BLACK
6
CONTINUOUS
10
126.3038059999999945
20
-35.8433659999999961
11
126.3308660000000003
21
-35.8163059999999973
0
LINE
8
BLACK
6
CONTINUOUS
10
126.3308660000000003
20
-35.8163059999999973
11
126.3499999999999943
21
-35.8125
0
LINE
8
BLACK
6
CONTINUOUS
10
126.3499999999999943
20
-35.8125
11
140.3499999999999943
21
-35.8125
0
LINE
8
BLACK
6
CONTINUOUS
10
140.3499999999999943
20
-35.8125
11
140.3691340000000025
21
-35.8163059999999973
0
LINE
8
BLACK
6
CONTINUOUS
10
126.3999999999999915
20
-35.9125000000000014
11
126.3999999999999915
21
-49.8125
0
LINE
8
BLACK
6
CONTINUOUS
10
126.3999999999999915
20
-49.8125
11
140.2999999999999829
21
-49.8125
0
LINE
8
BLACK
6
CONTINUOUS
10
140.2999999999999829
20
-49.8125
11
140.2999999999999829
21
-35.9125000000000014
0
LINE
8
BLACK
6
CONTINUOUS
10
140.2999999999999829
20
-35.9125000000000014
11
126.3999999999999915
21
-35.9125000000000014
0
LINE
8
BLACK
6
CONTINUOUS
10
83.2191339999999968
20
-31.053805999999998
11
83.2461940000000027
21
-31.0808660000000003
0
LINE
8
BLACK
6
CONTINUOUS
10
83.2461940000000027
20
-31.0808660000000003
11
83.25
21
-31.0999999999999979
0
LINE
8
BLACK
6
CONTINUOUS
10
83.25
20
-31.0999999999999979
11
83.25
21
-45.1000000000000014
0
LINE
8
BLACK
6
CONTINUOUS
10
83.25
20
-45.1000000000000014
11
83.2461940000000027
21
-45.1191339999999954
0
LINE
8
BLACK
6
CONTINUOUS
10
83.2461940000000027
20
-45.1191339999999954
11
83.2191339999999968
21
-45.1461940000000013
0
LINE
8
BLACK
6
CONTINUOUS
10
83.2191339999999968
20
-45.1461940000000013
11
83.2000000000000028
21
-45.1499999999999986
0
LINE
8
BLACK
6
CONTINUOUS
10
83.2000000000000028
20
-45.1499999999999986
11
69.2000000000000028
21
-45.1499999999999986
0
LINE
8
BLACK
6
CONTINUOUS
10
69.2000000000000028
20
-45.1499999999999986
11
69.1808659999999946
21
-45.1461940000000013
0
LINE
8
BLACK
6
CONTINUOUS
10
69.1808659999999946
20
-45.1461940000000013
11
69.153806000000003
21
-45.1191339999999954
0
LINE
8
BLACK
6
CONTINUOUS
10
69.153806000000003
20
-45.1191339999999954
11
69.1499999999999915
21
-45.1000000000000014
0
LINE
8
BLACK
6
CONTINUOUS
10
69.1499999999999915
20
-45.1000000000000014
11
69.1499999999999915
21
-31.0999999999999979
0
LINE
8
BLACK
6
CONTINUOUS
10
69.1499999999999915
20
-31.0999999999999979
11
69.153806000000003
21
-31.0808660000000003
0
LINE
8
BLACK
6
CONTINUOUS
10
69.153806000000003
20
-31.0808660000000003
11
69.1808659999999946
21
-31.053805999999998
0
LINE
8
BLACK
6
CONTINUOUS
10
69.1808659999999946
20
-31.053805999999998
11
69.2000000000000028
21
-31.0499999999999972
0
LINE
8
BLACK
6
CONTINUOUS
10
69.2000000000000028
20
-31.0499999999999972
11
83.2000000000000028
21
-31.0499999999999972
0
LINE
8
BLACK
6
CONTINUOUS
10
83.2000000000000028
20
-31.0499999999999972
11
83.2191339999999968
21
-31.053805999999998
0
LINE
8
BLACK
6
CONTINUOUS
10
69.25
20
-31.1499999999999986
11
69.25
21
-45.0499999999999972
0
LINE
8
BLACK
6
CONTINUOUS
10
69.25
20
-45.0499999999999972
11
83.1499999999999915
21
-45.0499999999999972
0
LINE
8
BLACK
6
CONTINUOUS
10
83.1499999999999915
20
-45.0499999999999972
11
83.1499999999999915
21
-31.1499999999999986
0
LINE
8
BLACK
6
CONTINUOUS
10
83.1499999999999915
20
-31.1499999999999986
11
69.25
21
-31.1499999999999986
0
LINE
8
BLACK
6
CONTINUOUS
10
102.269133999999994
20
-31.053805999999998
11
102.2961939999999998
21
-31.0808660000000003
0
LINE
8
BLACK
6
CONTINUOUS
10
102.2961939999999998
20
-31.0808660000000003
11
102.2999999999999972
21
-31.0999999999999979
0
LINE
8
BLACK
6
CONTINUOUS
10
102.2999999999999972
20
-31.0999999999999979
11
102.2999999999999972
21
-45.1000000000000014
0
LINE
8
BLACK
6
CONTINUOUS
10
102.2999999999999972
20
-45.1000000000000014
11
102.2961939999999998
21
-45.1191339999999954
0
LINE
8
BLACK
6
CONTINUOUS
10
102.2961939999999998
20
-45.1191339999999954
11
102.269133999999994
21
-45.1461940000000013
0
LINE
8
BLACK
6
CONTINUOUS
10
102.269133999999994
20
-45.1461940000000013
11
102.25
21
-45.1499999999999986
0
LINE
8
BLACK
6
CONTINUOUS
10
102.25
20
-45.1499999999999986
11
88.25
21
-45.1499999999999986
0
LINE
8
BLACK
6
CONTINUOUS
10
88.25
20
-45.1499999999999986
11
88.2308659999999918
21
-45.1461940000000013
0
LINE
8
BLACK
6
CONTINUOUS
10
88.2308659999999918
20
-45.1461940000000013
11
88.2038060000000002
21
-45.1191339999999954
0
LINE
8
BLACK
6
CONTINUOUS
10
88.2038060000000002
20
-45.1191339999999954
11
88.2000000000000028
21
-45.1000000000000014
0
LINE
8
BLACK
6
CONTINUOUS
10
88.2000000000000028
20
-45.1000000000000014
11
88.2000000000000028
21
-31.0999999999999979
0
LINE
8
BLACK
6
CONTINUOUS
10
88.2000000000000028
20
-31.0999999999999979
11
88.2038060000000002
21
-31.0808660000000003
0
LINE
8
BLACK
6
CONTINUOUS
10
88.2038060000000002
20
-31.0808660000000003
11
88.2308659999999918
21
-31.053805999999998
0
LINE
8
BLACK
6
CONTINUOUS
10
88.2308659999999918
20
-31.053805999999998
11
88.25
21
-31.0499999999999972
0
LINE
8
BLACK
6
CONTINUOUS
10
88.25
20
-31.0499999999999972
11
102.25
21
-31.0499999999999972
0
LINE
8
BLACK
6
CONTINUOUS
10
102.25
20
-31.0499999999999972
11
102.269133999999994
21
-31.053805999999998
0
LINE
8
BLACK
6
CONTINUOUS
10
88.2999999999999972
20
-31.1499999999999986
11
88.2999999999999972
21
-45.0499999999999972
0
LINE
8
BLACK
6
CONTINUOUS
10
88.2999999999999972
20
-45.0499999999999972
11
102.1999999999999886
21
-45.0499999999999972
0
LINE
8
BLACK
6
CONTINUOUS
10
102.1999999999999886
20
-45.0499999999999972
11
102.1999999999999886
21
-31.1499999999999986
0
LINE
8
BLACK
6
CONTINUOUS
10
102.1999999999999886
20
-31.1499999999999986
11
88.2999999999999972
21
-31.1499999999999986
  0
ENDSEC
  0
EOF
